<?xml version="1.0" encoding="UTF-8" standalone="no"?>
<!-- Created with Inkscape (http://www.inkscape.org/) -->

<svg
   xmlns:dc="http://purl.org/dc/elements/1.1/"
   xmlns:cc="http://creativecommons.org/ns#"
   xmlns:rdf="http://www.w3.org/1999/02/22-rdf-syntax-ns#"
   xmlns:svg="http://www.w3.org/2000/svg"
   xmlns="http://www.w3.org/2000/svg"
   xmlns:xlink="http://www.w3.org/1999/xlink"
   xmlns:sodipodi="http://sodipodi.sourceforge.net/DTD/sodipodi-0.dtd"
   xmlns:inkscape="http://www.inkscape.org/namespaces/inkscape"
   sodipodi:docname="calendar.svg"
   inkscape:version="0.92.2 (5c3e80d, 2017-08-06)"
   sodipodi:version="0.32"
   id="svg1288"
   height="22"
   width="22"
   inkscape:output_extension="org.inkscape.output.svg.inkscape"
   version="1.1">
  <defs
     id="defs3">
    <inkscape:perspective
       sodipodi:type="inkscape:persp3d"
       inkscape:vp_x="0 : 24 : 1"
       inkscape:vp_y="0 : 1000 : 0"
       inkscape:vp_z="48 : 24 : 1"
       inkscape:persp3d-origin="24 : 16 : 1"
       id="perspective48" />
    <radialGradient
       inkscape:collect="always"
       xlink:href="#linearGradient5060"
       id="radialGradient6719"
       gradientUnits="userSpaceOnUse"
       gradientTransform="matrix(-2.774389,0,0,1.969706,112.7623,-872.8854)"
       cx="605.71429"
       cy="486.64789"
       fx="605.71429"
       fy="486.64789"
       r="117.14286" />
    <linearGradient
       inkscape:collect="always"
       id="linearGradient5060">
      <stop
         style="stop-color:black;stop-opacity:1;"
         offset="0"
         id="stop5062" />
      <stop
         style="stop-color:black;stop-opacity:0;"
         offset="1"
         id="stop5064" />
    </linearGradient>
    <radialGradient
       inkscape:collect="always"
       xlink:href="#linearGradient5060"
       id="radialGradient6717"
       gradientUnits="userSpaceOnUse"
       gradientTransform="matrix(2.774389,0,0,1.969706,-1891.633,-872.8854)"
       cx="605.71429"
       cy="486.64789"
       fx="605.71429"
       fy="486.64789"
       r="117.14286" />
    <linearGradient
       id="linearGradient5048">
      <stop
         style="stop-color:black;stop-opacity:0;"
         offset="0"
         id="stop5050" />
      <stop
         id="stop5056"
         offset="0.5"
         style="stop-color:black;stop-opacity:1;" />
      <stop
         style="stop-color:black;stop-opacity:0;"
         offset="1"
         id="stop5052" />
    </linearGradient>
    <linearGradient
       inkscape:collect="always"
       xlink:href="#linearGradient5048"
       id="linearGradient6715"
       gradientUnits="userSpaceOnUse"
       gradientTransform="matrix(2.774389,0,0,1.969706,-1892.179,-872.8854)"
       x1="302.85715"
       y1="366.64789"
       x2="302.85715"
       y2="609.50507" />
    <linearGradient
       id="linearGradient2563">
      <stop
         id="stop2565"
         offset="0"
         style="stop-color:#e2e2e2;stop-opacity:1;" />
      <stop
         id="stop2567"
         offset="1.0000000"
         style="stop-color:#9f9f9f;stop-opacity:1.0000000;" />
    </linearGradient>
    <linearGradient
       id="linearGradient2551"
       inkscape:collect="always">
      <stop
         id="stop2553"
         offset="0"
         style="stop-color:#000000;stop-opacity:1;" />
      <stop
         id="stop2555"
         offset="1"
         style="stop-color:#000000;stop-opacity:0;" />
    </linearGradient>
    <linearGradient
       id="linearGradient2526">
      <stop
         id="stop2528"
         offset="0.0000000"
         style="stop-color:#e7ebeb;stop-opacity:1.0000000;" />
      <stop
         style="stop-color:#e6ebeb;stop-opacity:1.0000000;"
         offset="0.50000000"
         id="stop2534" />
      <stop
         id="stop2530"
         offset="1.0000000"
         style="stop-color:#ffffff;stop-opacity:1.0000000;" />
    </linearGradient>
    <linearGradient
       gradientTransform="translate(0,0.785718)"
       gradientUnits="userSpaceOnUse"
       y2="28.428572"
       x2="42.214283"
       y1="14.428571"
       x1="13.357142"
       id="linearGradient2532"
       xlink:href="#linearGradient2526"
       inkscape:collect="always" />
    <radialGradient
       gradientUnits="userSpaceOnUse"
       gradientTransform="matrix(1,0,0,0.751938,0,7.193799)"
       r="18.428572"
       fy="29"
       fx="26"
       cy="29"
       cx="26"
       id="radialGradient2557"
       xlink:href="#linearGradient2551"
       inkscape:collect="always" />
    <linearGradient
       gradientTransform="matrix(0.45068874,0,0,0.45068874,0.02812701,25.831958)"
       gradientUnits="userSpaceOnUse"
       y2="30.785713"
       x2="42.214283"
       y1="30.785713"
       x1="6.7857146"
       id="linearGradient2569"
       xlink:href="#linearGradient2563"
       inkscape:collect="always" />
    <linearGradient
       y2="28.428572"
       x2="42.214283"
       y1="14.428571"
       x1="13.357142"
       gradientTransform="translate(0,0.785718)"
       gradientUnits="userSpaceOnUse"
       id="linearGradient2582"
       xlink:href="#linearGradient2526"
       inkscape:collect="always" />
  </defs>
  <sodipodi:namedview
     inkscape:window-y="-8"
     inkscape:window-x="-8"
     inkscape:window-height="1017"
     inkscape:window-width="1920"
     inkscape:document-units="px"
     inkscape:grid-bbox="true"
     showgrid="false"
     inkscape:current-layer="layer1"
     inkscape:cy="65.999075"
     inkscape:cx="31.200248"
     inkscape:zoom="5.6568542"
     inkscape:pageshadow="2"
     inkscape:pageopacity="0.0"
     borderopacity="1.0"
     bordercolor="#666666"
     pagecolor="#ffffff"
     id="base"
     inkscape:window-maximized="1" />
  <metadata
     id="metadata4">
    <rdf:RDF>
      <cc:Work
         rdf:about="">
        <dc:format>image/svg+xml</dc:format>
        <dc:type
           rdf:resource="http://purl.org/dc/dcmitype/StillImage" />
        <dc:title>Calendar</dc:title>
        <dc:creator>
          <cc:Agent>
            <dc:title>Jakub Steiner</dc:title>
          </cc:Agent>
        </dc:creator>
        <dc:source>http://jimmac.musichall.cz</dc:source>
        <dc:subject>
          <rdf:Bag>
            <rdf:li>calendar</rdf:li>
            <rdf:li>date</rdf:li>
            <rdf:li>time</rdf:li>
            <rdf:li>cal</rdf:li>
          </rdf:Bag>
        </dc:subject>
        <cc:license
           rdf:resource="http://creativecommons.org/publicdomain/zero/1.0/" />
      </cc:Work>
      <cc:License
         rdf:about="http://creativecommons.org/publicdomain/zero/1.0/">
        <cc:permits
           rdf:resource="http://creativecommons.org/ns#Reproduction" />
        <cc:permits
           rdf:resource="http://creativecommons.org/ns#Distribution" />
        <cc:permits
           rdf:resource="http://creativecommons.org/ns#DerivativeWorks" />
      </cc:License>
    </rdf:RDF>
  </metadata>
  <g
     inkscape:groupmode="layer"
     inkscape:label="Layer 1"
     id="layer1"
     transform="translate(0,-26)">
    <g
       transform="matrix(0.01034262,0,0,0.01026134,20.199094,42.037293)"
       id="g6707">
      <rect
         style="color:#000000;display:inline;overflow:visible;visibility:visible;opacity:0.40206185;fill:url(#linearGradient6715);fill-opacity:1;fill-rule:nonzero;stroke:none;stroke-width:1;stroke-linecap:round;stroke-linejoin:miter;stroke-miterlimit:4;stroke-dasharray:none;stroke-dashoffset:0;stroke-opacity:1;marker:none;marker-start:none;marker-mid:none;marker-end:none"
         id="rect6709"
         width="1339.6335"
         height="478.35718"
         x="-1559.2523"
         y="-150.69685" />
      <path
         style="color:#000000;display:inline;overflow:visible;visibility:visible;opacity:0.40206185;fill:url(#radialGradient6717);fill-opacity:1;fill-rule:nonzero;stroke:none;stroke-width:1;stroke-linecap:round;stroke-linejoin:miter;stroke-miterlimit:4;stroke-dasharray:none;stroke-dashoffset:0;stroke-opacity:1;marker:none;marker-start:none;marker-mid:none;marker-end:none"
         d="m -219.61876,-150.68038 c 0,0 0,478.33079 0,478.33079 142.874166,0.90045 345.40022,-107.16966 345.40014,-239.196175 0,-132.026537 -159.436816,-239.134595 -345.40014,-239.134615 z"
         id="path6711"
         sodipodi:nodetypes="cccc"
         inkscape:connector-curvature="0" />
      <path
         sodipodi:nodetypes="cccc"
         id="path6713"
         d="m -1559.2523,-150.68038 c 0,0 0,478.33079 0,478.33079 -142.8742,0.90045 -345.4002,-107.16966 -345.4002,-239.196175 0,-132.026537 159.4368,-239.134595 345.4002,-239.134615 z"
         style="color:#000000;display:inline;overflow:visible;visibility:visible;opacity:0.40206185;fill:url(#radialGradient6719);fill-opacity:1;fill-rule:nonzero;stroke:none;stroke-width:1;stroke-linecap:round;stroke-linejoin:miter;stroke-miterlimit:4;stroke-dasharray:none;stroke-dashoffset:0;stroke-opacity:1;marker:none;marker-start:none;marker-mid:none;marker-end:none"
         inkscape:connector-curvature="0" />
    </g>
    <path
       sodipodi:nodetypes="ccccccc"
       id="path1316"
       d="m 2.217187,42.797168 c -0.09658,0.450689 0.273633,0.917474 0.885282,0.901378 h 16.305274 c 0.579457,-0.01609 0.77261,-0.547265 0.643842,-0.981858 L 16.510459,29.727195 H 4.792551 Z"
       style="fill:#a7a7a7;fill-opacity:1;fill-rule:evenodd;stroke:#656565;stroke-width:0.45068875px;stroke-linecap:butt;stroke-linejoin:miter;stroke-opacity:1"
       inkscape:connector-curvature="0" />
    <path
       sodipodi:nodetypes="ccccccccc"
       id="path2575"
       d="m 4.157565,39.361968 h 13.625488 c 0.386331,0 0.69735,0.302992 0.69735,0.679353 l 0.598148,2.163727 c 0,0.376362 -0.311017,0.679354 -0.697349,0.679354 H 3.758799 c -0.386332,0 -0.69735,-0.302992 -0.69735,-0.679354 l 0.398766,-2.163727 c 0,-0.376361 0.311018,-0.679353 0.69735,-0.679353 z"
       style="color:#000000;font-family:'Bitstream Vera Sans';display:inline;overflow:visible;visibility:visible;opacity:0.10857143;fill:#000000;fill-opacity:1;fill-rule:evenodd;stroke:#000000;stroke-width:0.45068854;stroke-linecap:butt;stroke-linejoin:miter;stroke-miterlimit:4;stroke-dasharray:none;stroke-dashoffset:0;stroke-opacity:1;marker:none;marker-start:none;marker-mid:none;marker-end:none"
       inkscape:connector-curvature="0" />
    <path
       style="fill:none;fill-opacity:1;fill-rule:evenodd;stroke:#ffffff;stroke-width:0.4506886px;stroke-linecap:butt;stroke-linejoin:miter;stroke-opacity:0.3446328"
       d="m 2.753822,42.516388 c -0.09007,0.420351 -0.179665,0.711934 0.214041,0.711934 h 16.366616 c 0.412856,0 0.334297,-0.33337 0.214197,-0.738708 L 16.149341,30.197439 H 5.220213 Z"
       id="path2520"
       sodipodi:nodetypes="ccccccc"
       inkscape:connector-curvature="0" />
    <path
       style="color:#000000;font-family:'Bitstream Vera Sans';display:inline;overflow:visible;visibility:visible;opacity:1;fill:#c5c5c5;fill-opacity:1;fill-rule:evenodd;stroke:#696969;stroke-width:0.45068857;stroke-linecap:butt;stroke-linejoin:miter;stroke-miterlimit:4;stroke-dasharray:none;stroke-dashoffset:0;stroke-opacity:1;marker:none;marker-start:none;marker-mid:none;marker-end:none"
       d="m 4.373579,38.966315 h 13.199693 c 0.374258,0 0.675557,0.293524 0.675557,0.658124 l 0.579457,2.096111 c 0,0.3646 -0.301299,0.658123 -0.675558,0.658123 H 3.987274 c -0.374258,0 -0.675557,-0.293523 -0.675557,-0.658123 l 0.386305,-2.096111 c 0,-0.3646 0.301298,-0.658124 0.675557,-0.658124 z"
       id="path2518"
       sodipodi:nodetypes="ccccccccc"
       inkscape:connector-curvature="0" />
    <path
       sodipodi:nodetypes="ccccccccc"
       id="rect2225"
       d="m 4.373579,38.000554 h 13.199693 c 0.374258,0 0.675557,0.293523 0.675557,0.658123 l 0.579457,2.096111 c 0,0.3646 -0.301299,0.658124 -0.675558,0.658124 H 3.987274 c -0.374258,0 -0.675557,-0.293524 -0.675557,-0.658124 l 0.386305,-2.096111 c 0,-0.3646 0.301298,-0.658123 0.675557,-0.658123 z"
       style="color:#000000;display:inline;overflow:visible;visibility:visible;fill:url(#linearGradient2569);fill-opacity:1;fill-rule:evenodd;stroke:#696969;stroke-width:0.45068857;stroke-linecap:butt;stroke-linejoin:miter;stroke-miterlimit:4;stroke-dashoffset:0;stroke-opacity:1;marker:none;marker-start:none;marker-mid:none;marker-end:none"
       inkscape:connector-curvature="0" />
    <g
       transform="matrix(0.42479622,0,0,0.42479622,-0.07220399,26.314259)"
       id="g2578">
      <path
         style="fill:url(#linearGradient2582);fill-opacity:1;fill-rule:evenodd;stroke:#696969;stroke-width:1.06095243px;stroke-linecap:butt;stroke-linejoin:miter;stroke-opacity:1"
         d="M 10.891973,11.500004 6.5714281,33.21429 c 0,0 26.2857149,1e-6 26.2857149,1e-6 12.584832,0 15.228163,-4.000001 15.228163,-4.000001 0,0 -3.357142,-1.178571 -4.785713,-6.142857 0,0 -3.060953,-11.571429 -3.060953,-11.571429 z"
         id="path2524"
         sodipodi:nodetypes="cczczcc"
         inkscape:connector-curvature="0" />
      <path
         sodipodi:nodetypes="cccczcc"
         id="path2571"
         d="M 11.803734,12.474609 7.8122567,32.239668 c 0,0 17.1442613,10e-7 24.4261253,10e-7 11.226639,0 14.110429,-2.850865 14.110429,-2.850865 0,0 -2.99306,-1.862842 -4.293392,-6.381499 0,0 -2.738563,-10.461267 -2.738563,-10.461267 z"
         style="fill:none;fill-opacity:1;fill-rule:evenodd;stroke:#ffffff;stroke-width:1.06095195px;stroke-linecap:butt;stroke-linejoin:miter;stroke-opacity:1"
         inkscape:connector-curvature="0" />
    </g>
    <path
       sodipodi:nodetypes="ccccccccc"
       id="rect2522"
       d="m 5.127986,28.825817 h 11.347808 c 0.393504,0 0.710297,0.301408 0.710297,0.675802 l 0.16096,0.966225 c 0,0.374394 -0.316792,0.675801 -0.710296,0.675801 H 4.967025 c -0.393504,0 -0.710296,-0.301407 -0.710296,-0.675801 l 0.16096,-0.966225 c 0,-0.374394 0.316793,-0.675802 0.710297,-0.675802 z"
       style="color:#000000;display:inline;overflow:visible;visibility:visible;fill:#9b9b9b;fill-opacity:1;fill-rule:evenodd;stroke:#696969;stroke-width:0.45068851;stroke-linecap:butt;stroke-linejoin:miter;stroke-miterlimit:4;stroke-dashoffset:0;stroke-opacity:1;marker:none;marker-start:none;marker-mid:none;marker-end:none"
       inkscape:connector-curvature="0" />
    <path
       id="text2541"
       d="m 9.478691,35.570126 c 0.445468,0.04226 0.776259,0.167838 0.992374,0.376749 0.216383,0.206569 0.305563,0.470645 0.267536,0.792229 -0.0558,0.471817 -0.310422,0.852087 -0.763865,1.140809 -0.453451,0.288724 -1.039982,0.433085 -1.759596,0.433086 -0.552462,-10e-7 -1.018157,-0.08685 -1.397086,-0.260556 l 0.108261,-0.915464 c 0.398157,0.27464 0.850801,0.411959 1.357933,0.411959 0.405136,0 0.724553,-0.06572 0.958252,-0.197177 0.233971,-0.133798 0.365254,-0.321585 0.393849,-0.563363 0.02998,-0.253511 -0.06425,-0.438951 -0.282686,-0.556321 -0.21844,-0.117365 -0.58264,-0.176048 -1.092602,-0.17605 H 7.687352 l 0.09327,-0.788708 h 0.611957 c 0.402302,3e-6 0.716914,-0.06103 0.943837,-0.183093 0.227194,-0.124406 0.354256,-0.300457 0.381186,-0.528153 0.02526,-0.213604 -0.04089,-0.38496 -0.198439,-0.514068 -0.157557,-0.1291 -0.407738,-0.193652 -0.750544,-0.193656 -0.433472,4e-6 -0.857849,0.126761 -1.273134,0.38027 l 0.103681,-0.876733 c 0.465285,-0.197173 0.986907,-0.295761 1.564869,-0.295766 0.558124,5e-6 0.986351,0.116199 1.284684,0.34858 0.301157,0.232392 0.430364,0.529331 0.387619,0.890818 -0.0397,0.335674 -0.172755,0.610313 -0.399163,0.823918 -0.22614,0.211264 -0.545635,0.361494 -0.958485,0.45069"
       style="font-style:normal;font-variant:normal;font-weight:bold;font-stretch:normal;font-size:17.57787704px;line-height:100%;font-family:Segoe;writing-mode:lr-tb;text-anchor:start;fill:#000000;fill-opacity:1;stroke:none;stroke-width:0.45068875px;stroke-linecap:butt;stroke-linejoin:miter;stroke-opacity:1"
       inkscape:connector-curvature="0" />
    <path
       id="text2545"
       d="m 14.904181,38.302436 h -1.13042 l -0.500849,-4.218179 -1.393756,0.359144 -0.09407,-0.792229 2.49742,-0.584489 0.621671,5.235753"
       style="font-style:normal;font-variant:normal;font-weight:bold;font-stretch:normal;font-size:17.57787704px;line-height:100%;font-family:Segoe;writing-mode:lr-tb;text-anchor:start;fill:#000000;fill-opacity:1;stroke:none;stroke-width:0.45068875px;stroke-linecap:butt;stroke-linejoin:miter;stroke-opacity:1"
       inkscape:connector-curvature="0" />
    <circle
       id="path2559"
       style="color:#000000;display:inline;overflow:visible;visibility:visible;opacity:0.52571429;fill:#fefefe;fill-opacity:1;fill-rule:evenodd;stroke:none;stroke-width:0.30836609;stroke-linecap:butt;stroke-linejoin:miter;stroke-miterlimit:4;stroke-dasharray:none;stroke-dashoffset:0;stroke-opacity:1;marker:none;marker-start:none;marker-mid:none;marker-end:none"
       cx="5.1788602"
       cy="29.566238"
       r="0.41849697" />
    <path
       sodipodi:nodetypes="cc"
       id="path2561"
       d="M 5.906034,29.354225 H 16.420267"
       style="opacity:0.30285716;fill:none;fill-opacity:0.75;fill-rule:evenodd;stroke:#ffffff;stroke-width:0.45068878px;stroke-linecap:round;stroke-linejoin:miter;stroke-opacity:1"
       inkscape:connector-curvature="0" />
  </g>
</svg>
