<?xml version="1.0" encoding="UTF-8" standalone="no"?>
<!-- Generator: Adobe Illustrator 9.0, SVG Export Plug-In  -->

<svg
   xmlns:dc="http://purl.org/dc/elements/1.1/"
   xmlns:cc="http://creativecommons.org/ns#"
   xmlns:rdf="http://www.w3.org/1999/02/22-rdf-syntax-ns#"
   xmlns:svg="http://www.w3.org/2000/svg"
   xmlns="http://www.w3.org/2000/svg"
   xmlns:xlink="http://www.w3.org/1999/xlink"
   xmlns:sodipodi="http://sodipodi.sourceforge.net/DTD/sodipodi-0.dtd"
   xmlns:inkscape="http://www.inkscape.org/namespaces/inkscape"
   sodipodi:docname="certificate.svg"
   inkscape:version="0.92.2 (5c3e80d, 2017-08-06)"
   sodipodi:version="0.32"
   id="svg5105"
   xml:space="preserve"
   viewBox="0 0 22 22"
   height="22"
   width="22"
   inkscape:output_extension="org.inkscape.output.svg.inkscape"
   version="1.1"><metadata
     id="metadata5189"><rdf:RDF><cc:Work
         rdf:about=""><dc:format>image/svg+xml</dc:format><dc:type
           rdf:resource="http://purl.org/dc/dcmitype/StillImage" /><dc:title>Certificate</dc:title><dc:creator><cc:Agent><dc:title>Jakub Steiner</dc:title></cc:Agent></dc:creator><dc:subject><rdf:Bag><rdf:li>certificate</rdf:li></rdf:Bag></dc:subject><cc:license
           rdf:resource="http://creativecommons.org/publicdomain/zero/1.0/" /></cc:Work><cc:License
         rdf:about="http://creativecommons.org/publicdomain/zero/1.0/"><cc:permits
           rdf:resource="http://creativecommons.org/ns#Reproduction" /><cc:permits
           rdf:resource="http://creativecommons.org/ns#Distribution" /><cc:permits
           rdf:resource="http://creativecommons.org/ns#DerivativeWorks" /></cc:License></rdf:RDF></metadata><defs
     id="defs5187"><inkscape:perspective
       sodipodi:type="inkscape:persp3d"
       inkscape:vp_x="0 : 24 : 1"
       inkscape:vp_y="0 : 1000 : 0"
       inkscape:vp_z="48 : 24 : 1"
       inkscape:persp3d-origin="24 : 16 : 1"
       id="perspective54" /><linearGradient
       id="linearGradient6684"><stop
         id="stop6686"
         offset="0.0000000"
         style="stop-color:#d5dbff;stop-opacity:1.0000000;" /><stop
         id="stop6688"
         offset="1"
         style="stop-color:#6579ff;stop-opacity:0;" /></linearGradient><linearGradient
       id="linearGradient6665"><stop
         style="stop-color:#000000;stop-opacity:1.0000000;"
         offset="0.0000000"
         id="stop6667" /><stop
         style="stop-color:#000000;stop-opacity:0.0000000;"
         offset="1.0000000"
         id="stop6669" /></linearGradient><linearGradient
       id="linearGradient6625"><stop
         id="stop6627"
         offset="0.0000000"
         style="stop-color:#1d2349;stop-opacity:1.0000000;" /><stop
         style="stop-color:#4c5279;stop-opacity:1.0000000;"
         offset="0.35315102"
         id="stop6637" /><stop
         style="stop-color:#b3bdff;stop-opacity:1.0000000;"
         offset="0.46551725"
         id="stop6633" /><stop
         id="stop6635"
         offset="0.64982164"
         style="stop-color:#727cbe;stop-opacity:1.0000000;" /><stop
         id="stop6629"
         offset="1.0000000"
         style="stop-color:#323c7e;stop-opacity:1.0000000;" /></linearGradient><linearGradient
       id="linearGradient6617"><stop
         id="stop6619"
         offset="0.0000000"
         style="stop-color:#ffffff;stop-opacity:0.24742268;" /><stop
         id="stop6621"
         offset="1"
         style="stop-color:#ffffff;stop-opacity:0;" /></linearGradient><linearGradient
       id="linearGradient6604"><stop
         id="stop6606"
         offset="0.0000000"
         style="stop-color:#ffa196;stop-opacity:1.0000000;" /><stop
         id="stop6608"
         offset="1"
         style="stop-color:#ff1f06;stop-opacity:0;" /></linearGradient><radialGradient
       r="13.2807"
       fy="20.971201"
       fx="28.789101"
       cy="20.971201"
       cx="28.789101"
       gradientUnits="userSpaceOnUse"
       id="radialGradient5199"
       xlink:href="#aigrd1"
       inkscape:collect="always" /><radialGradient
       r="14.6944"
       fy="13.5444"
       fx="19.292"
       cy="13.5444"
       cx="19.292"
       gradientUnits="userSpaceOnUse"
       id="radialGradient5201"
       xlink:href="#aigrd2"
       inkscape:collect="always" /><linearGradient
       y2="16.723101"
       x2="23.412001"
       y1="11.5991"
       x1="18.229"
       gradientUnits="userSpaceOnUse"
       id="linearGradient5203"
       xlink:href="#aigrd3"
       inkscape:collect="always" /><radialGradient
       gradientUnits="userSpaceOnUse"
       fy="20.971201"
       fx="28.789101"
       r="13.2807"
       cy="20.971201"
       cx="28.789101"
       id="aigrd1"><stop
         id="stop5115"
         style="stop-color:#E41E08"
         offset="0" /><stop
         id="stop5117"
         style="stop-color:#901505"
         offset="1" /></radialGradient><radialGradient
       gradientUnits="userSpaceOnUse"
       fy="13.5444"
       fx="19.292"
       r="14.6944"
       cy="13.5444"
       cx="19.292"
       id="aigrd2"><stop
         id="stop5122"
         style="stop-color:#E41E08"
         offset="0" /><stop
         id="stop5124"
         style="stop-color:#901505"
         offset="1" /></radialGradient><linearGradient
       y2="16.723101"
       x2="23.412001"
       y1="11.5991"
       x1="18.229"
       gradientUnits="userSpaceOnUse"
       id="aigrd3"><stop
         id="stop5137"
         style="stop-color:#FFFFFF"
         offset="0" /><stop
         id="stop5139"
         style="stop-color:#901505"
         offset="1" /></linearGradient><linearGradient
       gradientTransform="matrix(1.135551,0,0,1.135551,-3.259995,-3.266773)"
       y2="16.723101"
       x2="23.412001"
       y1="11.5991"
       x1="18.229"
       gradientUnits="userSpaceOnUse"
       id="linearGradient5274"
       xlink:href="#aigrd3"
       inkscape:collect="always" /><radialGradient
       gradientTransform="matrix(1.135551,0,0,1.135551,-4.540325,-2.077433)"
       r="14.6944"
       fy="13.5444"
       fx="19.292"
       cy="13.5444"
       cx="19.292"
       gradientUnits="userSpaceOnUse"
       id="radialGradient5281"
       xlink:href="#aigrd2"
       inkscape:collect="always" /><radialGradient
       gradientTransform="matrix(0.6048847,0,0,0.6048847,-4.1004563,-2.1272678)"
       r="13.2807"
       fy="20.971201"
       fx="28.789101"
       cy="20.971201"
       cx="28.789101"
       gradientUnits="userSpaceOnUse"
       id="radialGradient5284"
       xlink:href="#aigrd1"
       inkscape:collect="always" /><linearGradient
       gradientUnits="userSpaceOnUse"
       y2="49.895073"
       x2="43.14098"
       y1="5.9244628"
       x1="15.338736"
       gradientTransform="matrix(0.45040388,0,0,0.42977231,-0.17185812,0.80596002)"
       id="linearGradient6610"
       xlink:href="#linearGradient6604"
       inkscape:collect="always" /><linearGradient
       gradientUnits="userSpaceOnUse"
       y2="22.783224"
       x2="29.957399"
       y1="9.4436626"
       x1="18.570419"
       gradientTransform="matrix(0.47484233,0,0,0.44874255,-0.70193555,0.44172729)"
       id="linearGradient6623"
       xlink:href="#linearGradient6617"
       inkscape:collect="always" /><linearGradient
       gradientUnits="userSpaceOnUse"
       y2="35.01786"
       x2="38.250904"
       y1="22.886259"
       x1="38.506161"
       gradientTransform="matrix(0.38956856,0,0,0.54696951,-0.70193555,0.6725313)"
       id="linearGradient6631"
       xlink:href="#linearGradient6625"
       inkscape:collect="always" /><radialGradient
       gradientUnits="userSpaceOnUse"
       r="33.156136"
       fy="19.818913"
       fx="24.452202"
       cy="19.818913"
       cx="24.452202"
       gradientTransform="matrix(0.47290727,0,0,0.45057883,0.32268148,-0.35208573)"
       id="radialGradient6663"
       xlink:href="#linearGradient6665"
       inkscape:collect="always" /><radialGradient
       r="33.156136"
       fy="19.818913"
       fx="24.452202"
       cy="19.818913"
       cx="24.452202"
       gradientTransform="matrix(0.47290727,0,0,0.45057883,0.64908821,-0.27048405)"
       gradientUnits="userSpaceOnUse"
       id="radialGradient6675"
       xlink:href="#linearGradient6665"
       inkscape:collect="always" /><radialGradient
       r="14.6944"
       fy="20.479359"
       fx="26.887432"
       cy="20.479359"
       cx="26.887432"
       gradientTransform="matrix(0.52417946,0,0,0.52417946,-2.2067754,-1.0662414)"
       gradientUnits="userSpaceOnUse"
       id="radialGradient6678"
       xlink:href="#aigrd2"
       inkscape:collect="always" /><linearGradient
       gradientUnits="userSpaceOnUse"
       y2="27.403761"
       x2="36.499001"
       y1="35.458244"
       x1="37.502811"
       gradientTransform="matrix(0.38956856,0,0,0.54696951,-0.11092494,-0.10728161)"
       id="linearGradient6690"
       xlink:href="#linearGradient6684"
       inkscape:collect="always" /></defs><sodipodi:namedview
     inkscape:current-layer="svg5105"
     inkscape:window-y="-8"
     inkscape:window-x="-8"
     inkscape:cy="20.392013"
     inkscape:cx="-9.8371578"
     inkscape:zoom="5.6568542"
     id="base"
     pagecolor="#ffffff"
     bordercolor="#666666"
     borderopacity="0.16470588"
     inkscape:pageopacity="0.0"
     inkscape:pageshadow="2"
     inkscape:window-width="1920"
     inkscape:window-height="1017"
     inkscape:showpageshadow="false"
     showgrid="false"
     inkscape:window-maximized="1" /><path
     style="color:#000000;display:inline;overflow:visible;visibility:visible;opacity:0.48044691;fill:url(#radialGradient6675);fill-opacity:1;fill-rule:nonzero;stroke:none;stroke-width:0.46160802;stroke-linecap:round;stroke-linejoin:round;stroke-miterlimit:4;stroke-dashoffset:0;stroke-opacity:1;marker:none;marker-start:none;marker-mid:none;marker-end:none"
     d="m 11.608892,8.804079 c 0,0 -2.7257329,3.774092 -2.7257329,5.503884 0,1.729792 3.1450769,0.786269 4.4031069,2.0443 1.258031,1.258031 -2.935405,4.507943 -2.935405,4.507943 l 4.193436,-1.153194 1.677374,1.782209 c 0,-2.149135 2.463643,-3.878927 1.205613,-5.189376 C 16.116835,14.989396 12.395161,15.14665 12.185489,13.416858 11.975817,11.687066 11.66131,8.8564969 11.66131,8.8564969 Z"
     id="path6671"
     inkscape:connector-curvature="0" /><path
     style="opacity:0.48044691;fill:url(#radialGradient6663);fill-opacity:1;fill-rule:nonzero;stroke:none;stroke-width:0.46160802;stroke-linecap:round;stroke-linejoin:round;stroke-miterlimit:4;stroke-opacity:1"
     d="m 16.929871,4.2293653 c 0.610028,1.4113093 1.681699,1.3395025 1.708203,3.2231849 0.01511,1.0505101 0.845876,1.6021229 0.845876,2.6752568 0,1.073134 -1.853363,1.603383 -2.484618,2.234637 -0.631256,0.631257 0.0498,2.250075 -1.662726,2.725777 -1.696254,0.471181 -2.525023,-0.189376 -3.598157,-0.189376 -1.073136,0 -3.6410802,2.069245 -4.5879642,1.122361 C 6.2036011,15.074323 6.1833993,13.005078 5.3627674,12.184446 4.4790091,11.300688 3.0826843,10.065942 3.0826843,8.4878032 c 0,-1.5781386 0.911309,-2.4112492 2.2169577,-3.8784237 1.3470992,-1.5137535 1.3887621,-3.78753415 2.9669011,-3.78753415 1.5781386,0 2.1830279,0.43290065 3.5262069,0.39895485 2.141093,-0.054111 2.403473,-1.07246404 3.978171,-0.27396432 1.388379,0.70402112 0.681406,2.17772502 1.15895,3.28252942 z"
     id="path6639"
     sodipodi:nodetypes="csssssssssssss"
     inkscape:connector-curvature="0" /><path
     id="path5112"
     d="m 10.792875,8.2328672 c 0,0 -2.7257328,3.7740918 -2.7257328,5.5038838 0,1.729793 3.1450768,0.786269 4.4031068,2.0443 1.258031,1.258031 -2.9354046,4.507943 -2.9354046,4.507943 L 13.72828,19.1358 l 1.677374,1.78221 c 0,-2.149136 2.463643,-3.878928 1.205613,-5.189376 C 15.300818,14.418185 11.579144,14.575438 11.369472,12.845646 11.1598,11.115854 10.845293,8.2852851 10.845293,8.2852851 Z"
     style="fill:url(#linearGradient6631);fill-opacity:1;fill-rule:nonzero;stroke:#1f254f;stroke-width:0.46160802;stroke-miterlimit:6.5999999;stroke-opacity:1"
     inkscape:connector-curvature="0" /><path
     sodipodi:nodetypes="cscccsss"
     style="fill:none;fill-opacity:1;fill-rule:nonzero;stroke:url(#linearGradient6690);stroke-width:0.33287716;stroke-miterlimit:6.5999999;stroke-opacity:1"
     d="m 9.4920053,14.480649 c 2.1012397,0.206978 3.4292927,0.570329 3.6035987,1.841404 0.152384,1.111201 -1.953591,3.107988 -1.953591,3.107988 l 2.697586,-0.749996 1.311599,1.366799 c 0.306006,-1.713 2.01483,-2.872127 1.236605,-3.925794 -0.976157,-1.321652 -4.138801,-1.035602 -4.29,-2.282999 -0.1512,-1.247397 -3.8470696,0.519132 -2.6057977,0.642598 z"
     id="path6680"
     inkscape:connector-curvature="0" /><path
     sodipodi:nodetypes="csssssssssssss"
     id="path5119"
     d="m 16.015575,4.1611198 c 0.584544,1.3523518 1.611447,1.2835449 1.636843,3.0885366 0.01449,1.006625 0.81054,1.5351943 0.81054,2.5634982 0,1.0283034 -1.775939,1.5364014 -2.380824,2.1412854 -0.604885,0.604886 0.04772,2.156078 -1.593265,2.611907 -1.625393,0.451498 -2.41954,-0.181465 -3.447845,-0.181465 -1.028304,0 -3.4889735,1.982803 -4.3963015,1.075475 C 5.737395,14.55303 5.718037,12.570227 4.9316868,11.783877 4.0848475,10.937038 2.7468539,9.753874 2.7468539,8.2416618 c 0,-1.5122122 0.8732392,-2.3105194 2.1243448,-3.716403 1.290824,-1.450516 1.3307466,-3.62930967 2.8429589,-3.62930967 1.5122122,0 2.0918326,0.41481637 3.3788994,0.38228847 2.05165,-0.051851 2.303069,-1.02766172 3.811983,-0.2625197 1.330381,0.6746112 0.652941,2.086751 1.110535,3.1454019 z"
     style="fill:url(#radialGradient5284);fill-rule:nonzero;stroke:#4c0901;stroke-width:0.46160802;stroke-linecap:round;stroke-linejoin:round;stroke-miterlimit:4;stroke-opacity:1"
     inkscape:connector-curvature="0" /><path
     id="path5126"
     d="m 16.03467,8.0020632 c 0,2.8829868 -2.358808,5.2417948 -5.241795,5.2417948 -2.8829869,0 -5.2417942,-2.358808 -5.2417942,-5.2417948 0,-2.8829868 2.3588073,-5.2417945 5.2417942,-5.2417945 2.882987,0 5.241795,2.3588077 5.241795,5.2417945 z"
     style="fill:url(#radialGradient6678);fill-rule:nonzero;stroke:none;stroke-width:0.46160802;stroke-miterlimit:4"
     inkscape:connector-curvature="0" /><path
     style="fill:none;fill-rule:nonzero;stroke:url(#linearGradient6610);stroke-width:0.46160802;stroke-linecap:round;stroke-linejoin:round;stroke-miterlimit:4;stroke-opacity:1"
     d="m 15.532496,4.5227043 c 0.532354,1.2316103 1.467572,1.1689466 1.490702,2.812784 0.01319,0.9167508 0.738172,1.3981281 0.738172,2.3346223 0,0.9364944 -1.617378,1.3992274 -2.168257,1.9501054 -0.55088,0.55088 0.04346,1.963578 -1.451015,2.378709 -1.480273,0.411187 -2.203517,-0.165263 -3.140012,-0.165263 -0.936494,0 -3.1774685,1.805773 -4.0037879,0.979453 C 6.1719796,13.986797 6.1543499,12.181024 5.438207,11.464882 4.6669758,10.69365 3.4484419,9.6161228 3.4484419,8.2389249 c 0,-1.3771978 0.7952742,-2.1042305 1.9346772,-3.3845927 1.1755763,-1.32101 1.2119344,-3.305275 2.5891322,-3.305275 1.3771979,0 1.9050683,0.37778 3.0772227,0.3481568 1.868473,-0.047222 2.097444,-0.93590994 3.471639,-0.2390811 1.2116,0.6143795 0.594644,1.9004402 1.011383,2.8645714 z"
     id="path6600"
     sodipodi:nodetypes="csssssssssssss"
     inkscape:connector-curvature="0" /><path
     id="path6612"
     d="m 10.812221,3.1481907 c -2.7086307,0 -4.9143997,2.1890523 -4.9143997,4.8976842 0,1.6945598 0.9156942,3.1299921 2.2231809,4.0117551 C 11.463261,10.258761 10.869326,7.0698684 15.325446,6.1737215 14.587332,4.3969452 12.85511,3.1481907 10.812221,3.1481907 Z"
     style="color:#000000;display:inline;overflow:visible;visibility:visible;opacity:1;fill:url(#linearGradient6623);fill-opacity:1;fill-rule:nonzero;stroke:none;stroke-width:0.46160802;stroke-linecap:round;stroke-linejoin:round;stroke-miterlimit:4;stroke-dashoffset:0;stroke-opacity:1;marker:none;marker-start:none;marker-mid:none;marker-end:none"
     inkscape:connector-curvature="0" /></svg>