<?xml version="1.0" encoding="UTF-8" standalone="no"?>
<!-- Created with Inkscape (http://www.inkscape.org/) -->

<svg
   xmlns:dc="http://purl.org/dc/elements/1.1/"
   xmlns:cc="http://creativecommons.org/ns#"
   xmlns:rdf="http://www.w3.org/1999/02/22-rdf-syntax-ns#"
   xmlns:svg="http://www.w3.org/2000/svg"
   xmlns="http://www.w3.org/2000/svg"
   xmlns:xlink="http://www.w3.org/1999/xlink"
   xmlns:sodipodi="http://sodipodi.sourceforge.net/DTD/sodipodi-0.dtd"
   xmlns:inkscape="http://www.inkscape.org/namespaces/inkscape"
   inkscape:export-ydpi="90.000000"
   inkscape:export-xdpi="90.000000"
   inkscape:export-filename="/home/jimmac/Desktop/wi-fi.png"
   width="22"
   height="22"
   id="svg11300"
   sodipodi:version="0.32"
   inkscape:version="0.92.2 (5c3e80d, 2017-08-06)"
   sodipodi:docname="contact.svg"
   inkscape:output_extension="org.inkscape.output.svg.inkscape"
   version="1.1">
  <defs
     id="defs3">
    <inkscape:perspective
       sodipodi:type="inkscape:persp3d"
       inkscape:vp_x="0 : 24 : 1"
       inkscape:vp_y="0 : 1000 : 0"
       inkscape:vp_z="48 : 24 : 1"
       inkscape:persp3d-origin="24 : 16 : 1"
       id="perspective89" />
    <radialGradient
       inkscape:collect="always"
       xlink:href="#linearGradient5060"
       id="radialGradient5031"
       gradientUnits="userSpaceOnUse"
       gradientTransform="matrix(-2.774389,0,0,1.969706,112.7623,-872.8854)"
       cx="605.71429"
       cy="486.64789"
       fx="605.71429"
       fy="486.64789"
       r="117.14286" />
    <linearGradient
       inkscape:collect="always"
       id="linearGradient5060">
      <stop
         style="stop-color:black;stop-opacity:1;"
         offset="0"
         id="stop5062" />
      <stop
         style="stop-color:black;stop-opacity:0;"
         offset="1"
         id="stop5064" />
    </linearGradient>
    <radialGradient
       inkscape:collect="always"
       xlink:href="#linearGradient5060"
       id="radialGradient5029"
       gradientUnits="userSpaceOnUse"
       gradientTransform="matrix(2.774389,0,0,1.969706,-1891.633,-872.8854)"
       cx="605.71429"
       cy="486.64789"
       fx="605.71429"
       fy="486.64789"
       r="117.14286" />
    <linearGradient
       id="linearGradient5048">
      <stop
         style="stop-color:black;stop-opacity:0;"
         offset="0"
         id="stop5050" />
      <stop
         id="stop5056"
         offset="0.5"
         style="stop-color:black;stop-opacity:1;" />
      <stop
         style="stop-color:black;stop-opacity:0;"
         offset="1"
         id="stop5052" />
    </linearGradient>
    <linearGradient
       inkscape:collect="always"
       xlink:href="#linearGradient5048"
       id="linearGradient5027"
       gradientUnits="userSpaceOnUse"
       gradientTransform="matrix(2.774389,0,0,1.969706,-1892.179,-872.8854)"
       x1="302.85715"
       y1="366.64789"
       x2="302.85715"
       y2="609.50507" />
    <linearGradient
       id="linearGradient12512">
      <stop
         style="stop-color:#ffffff;stop-opacity:1.0000000;"
         offset="0.0000000"
         id="stop12513" />
      <stop
         style="stop-color:#fff520;stop-opacity:0.89108908;"
         offset="0.50000000"
         id="stop12517" />
      <stop
         style="stop-color:#fff300;stop-opacity:0.0000000;"
         offset="1.0000000"
         id="stop12514" />
    </linearGradient>
    <linearGradient
       inkscape:collect="always"
       id="linearGradient6962">
      <stop
         style="stop-color:#000000;stop-opacity:1;"
         offset="0"
         id="stop6964" />
      <stop
         style="stop-color:#000000;stop-opacity:0;"
         offset="1"
         id="stop6966" />
    </linearGradient>
    <linearGradient
       id="linearGradient4344">
      <stop
         style="stop-color:#727e0a;stop-opacity:1;"
         offset="0"
         id="stop4346" />
      <stop
         style="stop-color:#5b6508;stop-opacity:1.0000000;"
         offset="1.0000000"
         id="stop4348" />
    </linearGradient>
    <linearGradient
       inkscape:collect="always"
       id="linearGradient3816">
      <stop
         style="stop-color:#000000;stop-opacity:1;"
         offset="0"
         id="stop3818" />
      <stop
         style="stop-color:#000000;stop-opacity:0;"
         offset="1"
         id="stop3820" />
    </linearGradient>
    <linearGradient
       id="linearGradient4338">
      <stop
         id="stop4340"
         offset="0.0000000"
         style="stop-color:#e9b15e;stop-opacity:1.0000000;" />
      <stop
         id="stop4342"
         offset="1.0000000"
         style="stop-color:#d68f1f;stop-opacity:1" />
    </linearGradient>
    <linearGradient
       id="linearGradient3824">
      <stop
         style="stop-color:#ffffff;stop-opacity:1;"
         offset="0"
         id="stop3826" />
      <stop
         style="stop-color:#c9c9c9;stop-opacity:1.0000000;"
         offset="1.0000000"
         id="stop3828" />
    </linearGradient>
    <linearGradient
       id="linearGradient6732">
      <stop
         style="stop-color:#ffffff;stop-opacity:1;"
         offset="0"
         id="stop6734" />
      <stop
         style="stop-color:#dddddd;stop-opacity:1;"
         offset="1"
         id="stop6736" />
    </linearGradient>
    <linearGradient
       inkscape:collect="always"
       xlink:href="#linearGradient6732"
       id="linearGradient6738"
       x1="16.25"
       y1="12.25"
       x2="31.5"
       y2="36.625"
       gradientUnits="userSpaceOnUse"
       gradientTransform="matrix(0.45904939,0,0,0.41436883,0.04002201,26.541888)" />
    <radialGradient
       inkscape:collect="always"
       xlink:href="#linearGradient4344"
       id="radialGradient6948"
       gradientUnits="userSpaceOnUse"
       gradientTransform="matrix(1,0,0,0.681917,19.76231,14.9041)"
       cx="16.214741"
       cy="19.836468"
       fx="16.214741"
       fy="19.836468"
       r="13.56536" />
    <radialGradient
       inkscape:collect="always"
       xlink:href="#linearGradient3816"
       id="radialGradient6950"
       gradientUnits="userSpaceOnUse"
       cx="31.112698"
       cy="19.008621"
       fx="31.112698"
       fy="19.008621"
       r="8.6620579" />
    <radialGradient
       inkscape:collect="always"
       xlink:href="#linearGradient4338"
       id="radialGradient6952"
       gradientUnits="userSpaceOnUse"
       gradientTransform="matrix(0.787998,0,0,0.787998,6.221198,3.617627)"
       cx="29.344931"
       cy="17.064077"
       fx="29.344931"
       fy="17.064077"
       r="9.1620579" />
    <radialGradient
       inkscape:collect="always"
       xlink:href="#linearGradient6962"
       id="radialGradient6968"
       cx="25.75"
       cy="38.125"
       fx="25.75"
       fy="38.125"
       r="18.375"
       gradientTransform="matrix(1,0,0,0.265306,0,28.0102)"
       gradientUnits="userSpaceOnUse" />
  </defs>
  <sodipodi:namedview
     stroke="#ef2929"
     fill="#eeeeec"
     id="base"
     pagecolor="#ffffff"
     bordercolor="#666666"
     borderopacity="0.25490196"
     inkscape:pageopacity="0.0"
     inkscape:pageshadow="2"
     inkscape:zoom="22.627417"
     inkscape:cx="-3.6180101"
     inkscape:cy="3.8518029"
     inkscape:current-layer="layer1"
     showgrid="false"
     inkscape:grid-bbox="true"
     inkscape:document-units="px"
     inkscape:showpageshadow="false"
     inkscape:window-width="1920"
     inkscape:window-height="1017"
     inkscape:window-x="-8"
     inkscape:window-y="-8"
     inkscape:window-maximized="1" />
  <metadata
     id="metadata4">
    <rdf:RDF>
      <cc:Work
         rdf:about="">
        <dc:format>image/svg+xml</dc:format>
        <dc:type
           rdf:resource="http://purl.org/dc/dcmitype/StillImage" />
        <dc:creator>
          <cc:Agent>
            <dc:title>Jakub Steiner</dc:title>
          </cc:Agent>
        </dc:creator>
        <dc:source>http://jimmac.musichall.cz</dc:source>
        <cc:license
           rdf:resource="http://creativecommons.org/publicdomain/zero/1.0/" />
        <dc:title>New Contact</dc:title>
        <dc:subject>
          <rdf:Bag>
            <rdf:li>address</rdf:li>
            <rdf:li>contact</rdf:li>
            <rdf:li>e-mail</rdf:li>
            <rdf:li>person</rdf:li>
            <rdf:li>information</rdf:li>
            <rdf:li>card</rdf:li>
          </rdf:Bag>
        </dc:subject>
      </cc:Work>
      <cc:License
         rdf:about="http://creativecommons.org/publicdomain/zero/1.0/">
        <cc:permits
           rdf:resource="http://creativecommons.org/ns#Reproduction" />
        <cc:permits
           rdf:resource="http://creativecommons.org/ns#Distribution" />
        <cc:permits
           rdf:resource="http://creativecommons.org/ns#DerivativeWorks" />
      </cc:License>
    </rdf:RDF>
  </metadata>
  <g
     id="layer1"
     inkscape:label="Layer 1"
     inkscape:groupmode="layer"
     transform="translate(0,-26)">
    <g
       style="display:inline"
       id="g5022"
       transform="matrix(0.01034262,0,0,0.00615646,20.199094,41.91875)">
      <rect
         y="-150.69685"
         x="-1559.2523"
         height="478.35718"
         width="1339.6335"
         id="rect4173"
         style="color:#000000;display:inline;overflow:visible;visibility:visible;opacity:0.40206185;fill:url(#linearGradient5027);fill-opacity:1;fill-rule:nonzero;stroke:none;stroke-width:1;stroke-linecap:round;stroke-linejoin:miter;stroke-miterlimit:4;stroke-dasharray:none;stroke-dashoffset:0;stroke-opacity:1;marker:none;marker-start:none;marker-mid:none;marker-end:none" />
      <path
         sodipodi:nodetypes="cccc"
         id="path5058"
         d="m -219.61876,-150.68038 c 0,0 0,478.33079 0,478.33079 142.874166,0.90045 345.40022,-107.16966 345.40014,-239.196175 0,-132.026537 -159.436816,-239.134595 -345.40014,-239.134615 z"
         style="color:#000000;display:inline;overflow:visible;visibility:visible;opacity:0.40206185;fill:url(#radialGradient5029);fill-opacity:1;fill-rule:nonzero;stroke:none;stroke-width:1;stroke-linecap:round;stroke-linejoin:miter;stroke-miterlimit:4;stroke-dasharray:none;stroke-dashoffset:0;stroke-opacity:1;marker:none;marker-start:none;marker-mid:none;marker-end:none"
         inkscape:connector-curvature="0" />
      <path
         style="color:#000000;display:inline;overflow:visible;visibility:visible;opacity:0.40206185;fill:url(#radialGradient5031);fill-opacity:1;fill-rule:nonzero;stroke:none;stroke-width:1;stroke-linecap:round;stroke-linejoin:miter;stroke-miterlimit:4;stroke-dasharray:none;stroke-dashoffset:0;stroke-opacity:1;marker:none;marker-start:none;marker-mid:none;marker-end:none"
         d="m -1559.2523,-150.68038 c 0,0 0,478.33079 0,478.33079 -142.8742,0.90045 -345.4002,-107.16966 -345.4002,-239.196175 0,-132.026537 159.4368,-239.134595 345.4002,-239.134615 z"
         id="path5018"
         sodipodi:nodetypes="cccc"
         inkscape:connector-curvature="0" />
    </g>
    <rect
       style="color:#000000;display:inline;overflow:visible;visibility:visible;opacity:1;fill:url(#linearGradient6738);fill-opacity:1;fill-rule:evenodd;stroke:#939393;stroke-width:0.41436884;stroke-linecap:butt;stroke-linejoin:miter;stroke-miterlimit:4;stroke-dasharray:none;stroke-dashoffset:0;stroke-opacity:1;marker:none;marker-start:none;marker-mid:none;marker-end:none"
       id="rect5857"
       width="18.189829"
       height="12.431065"
       x="1.8762189"
       y="30.271206"
       rx="1.1395143"
       ry="1.1395143" />
    <rect
       ry="0.72514558"
       rx="0.72514558"
       y="30.739162"
       x="2.2882156"
       height="11.495154"
       width="17.362436"
       id="rect6740"
       style="color:#000000;display:inline;overflow:visible;visibility:visible;opacity:1;fill:none;fill-opacity:1;fill-rule:evenodd;stroke:#ffffff;stroke-width:0.41436893;stroke-linecap:butt;stroke-linejoin:miter;stroke-miterlimit:4;stroke-dasharray:none;stroke-dashoffset:0;stroke-opacity:1;marker:none;marker-start:none;marker-mid:none;marker-end:none" />
    <g
       id="g6935"
       transform="matrix(0.18016757,0,0,0.18016757,-0.89002099,31.863346)">
      <path
         sodipodi:nodetypes="cczcczc"
         id="path2329"
         d="M 32.623488,41.30637 H 43.23009 c 3.005204,0 5.980484,-1.101932 7.071067,-4.242641 1.035639,-2.982476 0.176777,-8.662058 -6.540737,-13.258252 H 31.209274 c -6.717514,4.24264 -7.556991,10.044831 -6.010407,13.435028 1.575595,3.45379 4.24264,4.065865 7.424621,4.065865 z"
         style="color:#000000;display:inline;overflow:visible;visibility:visible;opacity:1;fill:url(#radialGradient6948);fill-opacity:1;fill-rule:evenodd;stroke:#404604;stroke-width:2.29990602px;stroke-linecap:round;stroke-linejoin:round;stroke-miterlimit:4;stroke-dasharray:none;stroke-dashoffset:0;stroke-opacity:1;marker:none;marker-start:none;marker-mid:none;marker-end:none"
         inkscape:connector-curvature="0" />
      <path
         style="color:#000000;display:inline;overflow:visible;visibility:visible;opacity:0.21518986;fill:none;fill-opacity:1;fill-rule:evenodd;stroke:#ffffff;stroke-width:2.29990482px;stroke-linecap:round;stroke-linejoin:round;stroke-miterlimit:4;stroke-dasharray:none;stroke-dashoffset:0;stroke-opacity:1;marker:none;marker-start:none;marker-mid:none;marker-end:none"
         d="m 33.2112,39.482542 h 9.297094 c 2.378845,0 4.734002,-0.872261 5.59728,-3.358368 0.819787,-2.360854 -0.08536,-6.85667 -5.402777,-10.494902 h -10.38576 c -5.317416,3.358368 -6.207218,7.951238 -4.982982,10.634833 1.247203,2.733935 3.358368,3.218437 5.877145,3.218437 z"
         id="path3838"
         sodipodi:nodetypes="cczcczc"
         inkscape:connector-curvature="0" />
      <circle
         transform="translate(6.512314,3.170331)"
         style="color:#000000;display:inline;overflow:visible;visibility:visible;opacity:1;fill:url(#radialGradient6950);fill-opacity:1;fill-rule:evenodd;stroke:none;stroke-width:1px;stroke-linecap:round;stroke-linejoin:round;stroke-miterlimit:4;stroke-dasharray:none;stroke-dashoffset:0;stroke-opacity:1;marker:none;marker-start:none;marker-mid:none;marker-end:none"
         id="path3814"
         cx="31.112698"
         cy="19.008621"
         r="8.6620579" />
      <circle
         transform="translate(6.637314,-0.329669)"
         id="path2327"
         style="color:#000000;display:inline;overflow:visible;visibility:visible;opacity:1;fill:url(#radialGradient6952);fill-opacity:1;fill-rule:evenodd;stroke:#8f5c0c;stroke-width:2.29990602px;stroke-linecap:round;stroke-linejoin:round;stroke-miterlimit:4;stroke-dasharray:none;stroke-dashoffset:0;stroke-opacity:1;marker:none;marker-start:none;marker-mid:none;marker-end:none"
         cx="31.112698"
         cy="19.008621"
         r="8.6620579" />
      <circle
         transform="matrix(0.747377,0,0,0.747377,14.49712,4.47236)"
         style="color:#000000;display:inline;overflow:visible;visibility:visible;opacity:0.12658231;fill:none;fill-opacity:1;fill-rule:evenodd;stroke:#ffffff;stroke-width:3.07730651px;stroke-linecap:round;stroke-linejoin:round;stroke-miterlimit:4;stroke-dasharray:none;stroke-dashoffset:0;stroke-opacity:1;marker:none;marker-start:none;marker-mid:none;marker-end:none"
         id="path3834"
         cx="31.112698"
         cy="19.008621"
         r="8.6620579" />
    </g>
    <path
       style="font-style:normal;font-variant:normal;font-weight:bold;font-stretch:normal;font-size:4.12102222px;line-height:120.00000477%;font-family:Segoe;text-align:start;writing-mode:lr-tb;text-anchor:start;fill:#000000;fill-opacity:1;stroke:none;stroke-width:0.41436884pt;stroke-linecap:butt;stroke-linejoin:miter;stroke-opacity:1"
       d="m 10.10394,33.276818 c 0,0.156199 -0.03669,0.275988 -0.1100623,0.359368 -0.07337,0.08282 -0.173431,0.124237 -0.300168,0.124237 -0.0517,0 -0.101167,-0.0097 -0.148416,-0.02918 v -0.221791 c 0.04169,0.03168 0.08783,0.04753 0.138411,0.04753 0.06226,0 0.10895,-0.02307 0.140078,-0.06921 0.03168,-0.04669 0.04753,-0.116454 0.04753,-0.209284 v -0.739584 h 0.2326303 v 0.737914 m 0.649531,-0.426906 c 0.130072,10e-7 0.233741,0.04002 0.311007,0.120067 0.07726,0.08004 0.115897,0.187606 0.115898,0.322681 -1e-6,0.146749 -0.04141,0.261257 -0.124236,0.343525 -0.08282,0.08171 -0.193998,0.122569 -0.33352,0.122569 -0.128406,0 -0.232908,-0.0403 -0.313509,-0.120901 -0.08005,-0.0806 -0.120067,-0.186215 -0.120067,-0.316844 0,-0.146748 0.04197,-0.261813 0.125903,-0.345193 0.08394,-0.08394 0.196777,-0.125903 0.338524,-0.125904 m -0.01918,0.729575 c 0.06781,0 0.122845,-0.02418 0.165092,-0.07254 0.0428,-0.04892 0.0642,-0.115343 0.0642,-0.199279 -10e-7,-0.08505 -0.02113,-0.152029 -0.06337,-0.200946 -0.04225,-0.04947 -0.09644,-0.07421 -0.162591,-0.07421 -0.06559,1e-6 -0.12118,0.02585 -0.16676,0.07754 -0.04558,0.05114 -0.06837,0.118679 -0.06837,0.202614 0,0.08282 0.02224,0.148139 0.0667,0.195943 0.04502,0.04725 0.100056,0.07087 0.165093,0.07087 m 1.416626,0.155087 h -0.223458 v -0.467762 c -10e-7,-0.07838 -0.01195,-0.135075 -0.03585,-0.170095 -0.0239,-0.03557 -0.06476,-0.05336 -0.122569,-0.05336 -0.05058,0 -0.09255,0.01918 -0.125903,0.05753 -0.03335,0.03835 -0.05003,0.08727 -0.05003,0.146748 v 0.48694 h -0.22596 v -1.264041 h 0.22596 v 0.529463 c 0.03057,-0.05003 0.06865,-0.08755 0.114231,-0.112563 0.04614,-0.02502 0.09978,-0.03752 0.160923,-0.03752 0.09394,1e-6 0.164536,0.02918 0.211786,0.08755 0.04725,0.05837 0.07087,0.145916 0.07087,0.262647 v 0.534466 m 1.023907,0 h -0.223459 v -0.467762 c 0,-0.07838 -0.01195,-0.135075 -0.03585,-0.170095 -0.0239,-0.03557 -0.06476,-0.05336 -0.122569,-0.05336 -0.05058,0 -0.09255,0.01918 -0.125904,0.05753 -0.03335,0.03835 -0.05003,0.08727 -0.05003,0.146748 v 0.48694 h -0.22596 v -0.853812 h 0.22596 v 0.119234 c 0.03057,-0.05003 0.06865,-0.08755 0.114231,-0.112563 0.04614,-0.02502 0.09978,-0.03752 0.160923,-0.03752 0.09394,1e-6 0.164536,0.02918 0.211785,0.08755 0.04725,0.05837 0.07087,0.145916 0.07087,0.262647 v 0.534466 m 0.731243,-1.19567 h 0.418567 c 0.202335,2e-6 0.354087,0.04864 0.455255,0.145915 0.101723,0.09728 0.152584,0.242915 0.152586,0.436912 -2e-6,0.187327 -0.05726,0.336299 -0.171763,0.446917 -0.113954,0.110617 -0.268485,0.165926 -0.463593,0.165926 h -0.391052 v -1.19567 m 0.23263,1.0114 h 0.153419 c 0.125625,0 0.224292,-0.03752 0.295999,-0.112563 0.07226,-0.07504 0.108393,-0.177599 0.108394,-0.307672 -10e-7,-0.126182 -0.03502,-0.224292 -0.105059,-0.294332 -0.07004,-0.07004 -0.167594,-0.105058 -0.292663,-0.105059 h -0.16009 v 0.819626 M 15.52947,32.84991 c 0.130072,10e-7 0.233741,0.04002 0.311007,0.120067 0.07727,0.08004 0.115898,0.187606 0.115898,0.322681 0,0.146749 -0.04141,0.261257 -0.124236,0.343525 -0.08282,0.08171 -0.193998,0.122569 -0.33352,0.122569 -0.128406,0 -0.232909,-0.0403 -0.313509,-0.120901 -0.08005,-0.0806 -0.120067,-0.186215 -0.120067,-0.316844 0,-0.146748 0.04197,-0.261813 0.125904,-0.345193 0.08394,-0.08394 0.196776,-0.125903 0.338523,-0.125904 m -0.01918,0.729575 c 0.06781,0 0.122846,-0.02418 0.165092,-0.07254 0.0428,-0.04892 0.0642,-0.115343 0.0642,-0.199279 -1e-6,-0.08505 -0.02113,-0.152029 -0.06337,-0.200946 -0.04225,-0.04947 -0.09644,-0.07421 -0.162591,-0.07421 -0.06559,10e-7 -0.12118,0.02585 -0.16676,0.07754 -0.04558,0.05114 -0.06837,0.118679 -0.06837,0.202614 0,0.08282 0.02223,0.148139 0.0667,0.195943 0.04503,0.04725 0.100056,0.07087 0.165093,0.07087 m 1.367433,-0.222625 h -0.568652 c -1e-6,0.07004 0.0214,0.124515 0.0642,0.163425 0.04336,0.03835 0.103391,0.05753 0.180101,0.05753 0.08449,10e-7 0.165926,-0.02529 0.244304,-0.07588 v 0.185104 c -0.08783,0.04558 -0.186216,0.06837 -0.295165,0.06837 -0.131742,0 -0.234855,-0.03863 -0.30934,-0.115898 -0.07393,-0.07727 -0.110896,-0.18288 -0.110896,-0.316844 0,-0.144526 0.03946,-0.25959 0.1184,-0.345194 0.07949,-0.08616 0.183991,-0.129238 0.313509,-0.129239 0.113952,1e-6 0.20289,0.03558 0.266816,0.106726 0.06448,0.0706 0.09672,0.169263 0.09672,0.296 v 0.105892 M 16.669263,33.20676 c 0,-0.05948 -0.01501,-0.105892 -0.04502,-0.139244 -0.02946,-0.03335 -0.07143,-0.05003 -0.125903,-0.05003 -0.04947,0 -0.09227,0.01723 -0.128406,0.05169 -0.03613,0.03391 -0.05642,0.07977 -0.06087,0.137577 h 0.360201"
       id="text6970"
       inkscape:connector-curvature="0" />
    <rect
       style="color:#000000;display:inline;overflow:visible;visibility:visible;opacity:0.545;fill:#8d8d8d;fill-opacity:1;fill-rule:evenodd;stroke:none;stroke-width:0.41436884;stroke-linecap:butt;stroke-linejoin:miter;stroke-miterlimit:4;stroke-dasharray:none;stroke-dashoffset:0;stroke-opacity:1;marker:none;marker-start:none;marker-mid:none;marker-end:none"
       id="rect6978"
       width="7.1996584"
       height="0.82873768"
       x="9.5198898"
       y="36.750843"
       rx="0.42731786"
       ry="0.42731786" />
    <rect
       ry="0.42731786"
       rx="0.42731786"
       y="38.710236"
       x="9.5198898"
       height="0.82873768"
       width="5.8011637"
       id="rect6980"
       style="color:#000000;display:inline;overflow:visible;visibility:visible;opacity:0.545;fill:#8d8d8d;fill-opacity:1;fill-rule:evenodd;stroke:none;stroke-width:0.41436884;stroke-linecap:butt;stroke-linejoin:miter;stroke-miterlimit:4;stroke-dasharray:none;stroke-dashoffset:0;stroke-opacity:1;marker:none;marker-start:none;marker-mid:none;marker-end:none" />
  </g>
</svg>
