<?xml version="1.0" encoding="UTF-8" standalone="no"?>
<!-- Created with Inkscape (http://www.inkscape.org/) -->

<svg
   xmlns:dc="http://purl.org/dc/elements/1.1/"
   xmlns:cc="http://creativecommons.org/ns#"
   xmlns:rdf="http://www.w3.org/1999/02/22-rdf-syntax-ns#"
   xmlns:svg="http://www.w3.org/2000/svg"
   xmlns="http://www.w3.org/2000/svg"
   xmlns:xlink="http://www.w3.org/1999/xlink"
   xmlns:sodipodi="http://sodipodi.sourceforge.net/DTD/sodipodi-0.dtd"
   xmlns:inkscape="http://www.inkscape.org/namespaces/inkscape"
   inkscape:export-ydpi="90.000000"
   inkscape:export-xdpi="90.000000"
   inkscape:export-filename="/home/jimmac/Desktop/wi-fi.png"
   width="22"
   height="22"
   id="svg11300"
   sodipodi:version="0.32"
   inkscape:version="0.92.2 (5c3e80d, 2017-08-06)"
   sodipodi:docname="font.svg"
   inkscape:output_extension="org.inkscape.output.svg.inkscape"
   version="1.1">
  <defs
     id="defs3">
    <inkscape:perspective
       sodipodi:type="inkscape:persp3d"
       inkscape:vp_x="0 : 24 : 1"
       inkscape:vp_y="0 : 1000 : 0"
       inkscape:vp_z="48 : 24 : 1"
       inkscape:persp3d-origin="24 : 16 : 1"
       id="perspective34" />
    <radialGradient
       inkscape:collect="always"
       xlink:href="#linearGradient5060"
       id="radialGradient6719"
       gradientUnits="userSpaceOnUse"
       gradientTransform="matrix(-2.774389,0,0,1.969706,112.7623,-872.8854)"
       cx="605.71429"
       cy="486.64789"
       fx="605.71429"
       fy="486.64789"
       r="117.14286" />
    <linearGradient
       inkscape:collect="always"
       id="linearGradient5060">
      <stop
         style="stop-color:black;stop-opacity:1;"
         offset="0"
         id="stop5062" />
      <stop
         style="stop-color:black;stop-opacity:0;"
         offset="1"
         id="stop5064" />
    </linearGradient>
    <radialGradient
       inkscape:collect="always"
       xlink:href="#linearGradient5060"
       id="radialGradient6717"
       gradientUnits="userSpaceOnUse"
       gradientTransform="matrix(2.774389,0,0,1.969706,-1891.633,-872.8854)"
       cx="605.71429"
       cy="486.64789"
       fx="605.71429"
       fy="486.64789"
       r="117.14286" />
    <linearGradient
       id="linearGradient5048">
      <stop
         style="stop-color:black;stop-opacity:0;"
         offset="0"
         id="stop5050" />
      <stop
         id="stop5056"
         offset="0.5"
         style="stop-color:black;stop-opacity:1;" />
      <stop
         style="stop-color:black;stop-opacity:0;"
         offset="1"
         id="stop5052" />
    </linearGradient>
    <linearGradient
       inkscape:collect="always"
       xlink:href="#linearGradient5048"
       id="linearGradient6715"
       gradientUnits="userSpaceOnUse"
       gradientTransform="matrix(2.774389,0,0,1.969706,-1892.179,-872.8854)"
       x1="302.85715"
       y1="366.64789"
       x2="302.85715"
       y2="609.50507" />
    <linearGradient
       id="linearGradient11520">
      <stop
         id="stop11522"
         offset="0.0000000"
         style="stop-color:#ffffff;stop-opacity:1.0000000;" />
      <stop
         id="stop11524"
         offset="1.0000000"
         style="stop-color:#dcdcdc;stop-opacity:1.0000000;" />
    </linearGradient>
    <linearGradient
       id="linearGradient11508"
       inkscape:collect="always">
      <stop
         id="stop11510"
         offset="0"
         style="stop-color:#000000;stop-opacity:1;" />
      <stop
         id="stop11512"
         offset="1"
         style="stop-color:#000000;stop-opacity:0;" />
    </linearGradient>
    <radialGradient
       inkscape:collect="always"
       xlink:href="#linearGradient11508"
       id="radialGradient1348"
       gradientUnits="userSpaceOnUse"
       gradientTransform="matrix(1,0,0,0.338462,0,29.48178)"
       cx="30.203562"
       cy="44.565483"
       fx="30.203562"
       fy="44.565483"
       r="6.5659914" />
    <radialGradient
       inkscape:collect="always"
       xlink:href="#linearGradient11520"
       id="radialGradient1366"
       gradientUnits="userSpaceOnUse"
       gradientTransform="matrix(0.88372086,0,0,0.88372086,-10.722144,10.077417)"
       cx="24.44569"
       cy="35.87817"
       fx="24.44569"
       fy="35.87817"
       r="20.530962" />
  </defs>
  <sodipodi:namedview
     stroke="#ef2929"
     fill="#eeeeec"
     id="base"
     pagecolor="#ffffff"
     bordercolor="#666666"
     borderopacity="0.25490196"
     inkscape:pageopacity="0.0"
     inkscape:pageshadow="2"
     inkscape:zoom="1"
     inkscape:cx="-308.6819"
     inkscape:cy="22.612601"
     inkscape:current-layer="layer1"
     showgrid="false"
     inkscape:grid-bbox="true"
     inkscape:document-units="px"
     inkscape:showpageshadow="false"
     inkscape:window-width="1920"
     inkscape:window-height="1017"
     inkscape:window-x="-8"
     inkscape:window-y="-8"
     inkscape:window-maximized="1" />
  <metadata
     id="metadata4">
    <rdf:RDF>
      <cc:Work
         rdf:about="">
        <dc:format>image/svg+xml</dc:format>
        <dc:type
           rdf:resource="http://purl.org/dc/dcmitype/StillImage" />
        <dc:creator>
          <cc:Agent>
            <dc:title>Jakub Steiner</dc:title>
          </cc:Agent>
        </dc:creator>
        <dc:source>http://jimmac.musichall.cz</dc:source>
        <cc:license
           rdf:resource="http://creativecommons.org/publicdomain/zero/1.0/" />
        <dc:title>Wi-Fi network</dc:title>
      </cc:Work>
      <cc:License
         rdf:about="http://creativecommons.org/publicdomain/zero/1.0/">
        <cc:permits
           rdf:resource="http://creativecommons.org/ns#Reproduction" />
        <cc:permits
           rdf:resource="http://creativecommons.org/ns#Distribution" />
        <cc:permits
           rdf:resource="http://creativecommons.org/ns#DerivativeWorks" />
      </cc:License>
    </rdf:RDF>
  </metadata>
  <g
     id="layer1"
     inkscape:label="Layer 1"
     inkscape:groupmode="layer"
     transform="translate(0,-26)">
    <g
       transform="matrix(0.01034251,0,0,0.01135995,20.198996,43.047295)"
       id="g6707">
      <rect
         style="color:#000000;display:inline;overflow:visible;visibility:visible;opacity:0.40206185;fill:url(#linearGradient6715);fill-opacity:1;fill-rule:nonzero;stroke:none;stroke-width:1;stroke-linecap:round;stroke-linejoin:miter;stroke-miterlimit:4;stroke-dasharray:none;stroke-dashoffset:0;stroke-opacity:1;marker:none;marker-start:none;marker-mid:none;marker-end:none"
         id="rect6709"
         width="1339.6335"
         height="478.35718"
         x="-1559.2523"
         y="-150.69685" />
      <path
         style="color:#000000;display:inline;overflow:visible;visibility:visible;opacity:0.40206185;fill:url(#radialGradient6717);fill-opacity:1;fill-rule:nonzero;stroke:none;stroke-width:1;stroke-linecap:round;stroke-linejoin:miter;stroke-miterlimit:4;stroke-dasharray:none;stroke-dashoffset:0;stroke-opacity:1;marker:none;marker-start:none;marker-mid:none;marker-end:none"
         d="m -219.61876,-150.68038 c 0,0 0,478.33079 0,478.33079 142.874166,0.90045 345.40022,-107.16966 345.40014,-239.196175 0,-132.026537 -159.436816,-239.134595 -345.40014,-239.134615 z"
         id="path6711"
         sodipodi:nodetypes="cccc"
         inkscape:connector-curvature="0" />
      <path
         sodipodi:nodetypes="cccc"
         id="path6713"
         d="m -1559.2523,-150.68038 c 0,0 0,478.33079 0,478.33079 -142.8742,0.90045 -345.4002,-107.16966 -345.4002,-239.196175 0,-132.026537 159.4368,-239.134595 345.4002,-239.134615 z"
         style="color:#000000;display:inline;overflow:visible;visibility:visible;opacity:0.40206185;fill:url(#radialGradient6719);fill-opacity:1;fill-rule:nonzero;stroke:none;stroke-width:1;stroke-linecap:round;stroke-linejoin:miter;stroke-miterlimit:4;stroke-dasharray:none;stroke-dashoffset:0;stroke-opacity:1;marker:none;marker-start:none;marker-mid:none;marker-end:none"
         inkscape:connector-curvature="0" />
    </g>
    <rect
       ry="2.4162414"
       rx="2.4162414"
       y="27.451979"
       x="2.0082083"
       height="17.745628"
       width="17.745628"
       id="rect11518"
       style="color:#000000;display:inline;overflow:visible;visibility:visible;opacity:1;fill:url(#radialGradient1366);fill-opacity:1;fill-rule:evenodd;stroke:#9b9b9b;stroke-width:0.44295496;stroke-linecap:butt;stroke-linejoin:bevel;stroke-miterlimit:10;stroke-dasharray:none;stroke-dashoffset:0;stroke-opacity:1;marker:none;marker-start:none;marker-mid:none;marker-end:none" />
    <rect
       style="color:#000000;display:inline;overflow:visible;visibility:visible;opacity:1;fill:none;fill-opacity:1;fill-rule:evenodd;stroke:#ffffff;stroke-width:0.44295487;stroke-linecap:butt;stroke-linejoin:bevel;stroke-miterlimit:10;stroke-dasharray:none;stroke-dashoffset:0;stroke-opacity:1;marker:none;marker-start:none;marker-mid:none;marker-end:none"
       id="rect11528"
       width="16.697889"
       height="16.697889"
       x="2.532074"
       y="27.975843"
       rx="1.8792981"
       ry="1.8792981" />
    <path
       style="font-style:italic;font-variant:normal;font-weight:normal;font-stretch:normal;font-size:24px;line-height:120.00000477%;font-family:'Times New Roman';text-align:start;writing-mode:lr-tb;text-anchor:start;fill:#000000;fill-opacity:1;stroke:none;stroke-width:0.44295497pt;stroke-linecap:butt;stroke-linejoin:miter;stroke-opacity:1"
       d="m 8.5518912,29.243271 -1.012221,3.519416 -0.114199,0.472369 c -0.01039,0.04499 -0.01557,0.08305 -0.01557,0.1142 -3e-6,0.05537 0.0173,0.103818 0.05191,0.145345 0.02768,0.03114 0.06229,0.04672 0.103818,0.04672 0.04498,0 0.103814,-0.02768 0.17649,-0.08305 0.134958,-0.100357 0.314909,-0.307992 0.539851,-0.622906 l 0.17649,0.124581 c -0.238785,0.359902 -0.484486,0.635018 -0.737105,0.82535 -0.252626,0.186871 -0.486216,0.280307 -0.700768,0.280307 -0.148809,0 -0.261278,-0.03807 -0.337408,-0.114199 -0.07268,-0.07267 -0.109011,-0.179951 -0.109008,-0.321835 -3e-6,-0.169568 0.03806,-0.392776 0.114199,-0.669623 l 0.109009,-0.389316 c -0.45334,0.591761 -0.87034,1.0053 -1.251002,1.24062 -0.273388,0.169569 -0.541583,0.254353 -0.804586,0.254353 -0.252624,0 -0.47064,-0.103818 -0.654051,-0.311453 -0.183411,-0.211095 -0.275116,-0.500053 -0.275116,-0.866876 0,-0.550232 0.164377,-1.129879 0.493133,-1.738945 0.332215,-0.61252 0.752676,-1.102192 1.261384,-1.469018 0.397965,-0.290685 0.773438,-0.436029 1.12642,-0.436034 0.211093,5e-6 0.385852,0.05537 0.524279,0.166108 0.141881,0.110743 0.249158,0.294154 0.321835,0.550233 l 0.186871,-0.59176 0.82535,-0.124581 m -1.847953,0.269926 c -0.22148,4e-6 -0.4568,0.103822 -0.70596,0.311452 -0.352981,0.294154 -0.667894,0.730187 -0.944739,1.308102 -0.273388,0.57792 -0.410081,1.100468 -0.410079,1.567645 -2e-6,0.235321 0.05883,0.422192 0.176489,0.560615 0.117659,0.134963 0.252621,0.202444 0.404889,0.202444 0.377202,0 0.787281,-0.278576 1.230238,-0.835731 0.591757,-0.740564 0.887636,-1.500161 0.88764,-2.278796 -2e-6,-0.294146 -0.0571,-0.506972 -0.171297,-0.638478 -0.114204,-0.131498 -0.26993,-0.197249 -0.46718,-0.197253"
       id="text3423"
       inkscape:connector-curvature="0" />
    <path
       style="font-style:normal;font-variant:normal;font-weight:bold;font-stretch:normal;font-size:29.01771545px;line-height:120.00000477%;font-family:'Arial Rounded CE';text-align:start;writing-mode:lr-tb;text-anchor:start;fill:#000000;fill-opacity:1;stroke:none;stroke-width:0.44295497pt;stroke-linecap:butt;stroke-linejoin:miter;stroke-opacity:1"
       d="m 10.614131,34.815963 v 2.617151 c 0.322172,-0.334721 0.650624,-0.589951 0.985354,-0.765689 0.334724,-0.17991 0.748949,-0.269868 1.242676,-0.269874 0.569032,6e-6 1.066939,0.135989 1.493723,0.407949 0.430955,0.267788 0.76359,0.659001 0.997906,1.173639 0.238486,0.510464 0.357733,1.117157 0.35774,1.820081 -7e-6,0.518831 -0.06695,0.995817 -0.200836,1.430961 -0.129714,0.430963 -0.32009,0.80544 -0.571129,1.123429 -0.251052,0.317992 -0.556491,0.564853 -0.916317,0.740585 -0.355654,0.171548 -0.748958,0.257322 -1.179915,0.257322 -0.263602,0 -0.512556,-0.03138 -0.746861,-0.09414 -0.230129,-0.06276 -0.426781,-0.144351 -0.589957,-0.244769 -0.163183,-0.104602 -0.30335,-0.211297 -0.420502,-0.320084 -0.112973,-0.108786 -0.263601,-0.271965 -0.451882,-0.489539 v 0.169456 c -3e-6,0.322176 -0.07741,0.566945 -0.232218,0.734309 -0.154813,0.163179 -0.351465,0.244769 -0.5899568,0.244769 -0.242679,0 -0.437239,-0.08159 -0.583681,-0.244769 -0.14226,-0.167364 -0.21339,-0.412133 -0.213389,-0.734309 v -7.481165 c -10e-7,-0.347271 0.06904,-0.608777 0.207113,-0.784517 0.142258,-0.179907 0.33891,-0.269865 0.589957,-0.269875 0.2635958,1e-5 0.4665238,0.08578 0.6087858,0.257322 0.142257,0.167373 0.213386,0.407958 0.213389,0.721757 m 0.08159,5.089952 c -3e-6,0.68201 0.154809,1.207113 0.464434,1.575312 0.313804,0.364017 0.723845,0.546025 1.230124,0.546024 0.430957,10e-7 0.801249,-0.186191 1.110878,-0.558577 0.313801,-0.376566 0.470704,-0.914222 0.47071,-1.612969 -6e-6,-0.451878 -0.06486,-0.840998 -0.19456,-1.167362 -0.129713,-0.326355 -0.313813,-0.5774 -0.552301,-0.753138 -0.238498,-0.17991 -0.51674,-0.269868 -0.834727,-0.269873 -0.326363,5e-6 -0.617157,0.08996 -0.872384,0.269873 -0.255233,0.175738 -0.456069,0.433059 -0.602509,0.771966 -0.146446,0.334732 -0.219668,0.734313 -0.219665,1.198744"
       id="text3427"
       inkscape:connector-curvature="0" />
    <path
       style="font-style:normal;font-variant:normal;font-weight:normal;font-stretch:normal;font-size:19.52186584px;line-height:120.00000477%;font-family:'Carbon Block';text-align:start;writing-mode:lr-tb;text-anchor:start;fill:#000000;fill-opacity:1;stroke:none;stroke-width:0.44295497pt;stroke-linecap:butt;stroke-linejoin:miter;stroke-opacity:1"
       d="m 17.417374,31.494464 c -4e-6,0.08648 -0.0058,0.213304 -0.01729,0.380481 -0.0058,0.16142 -0.0087,0.2796 -0.0086,0.35454 h -1.210673 v -1.063619 c -2e-6,-0.207531 -0.115299,-0.311298 -0.345892,-0.311303 -0.230596,5e-6 -0.345894,0.103772 -0.345892,0.311303 v 3.415686 c -2e-6,0.213301 0.115296,0.319951 0.345892,0.319951 0.230593,0 0.34589,-0.10665 0.345892,-0.319951 v -1.132797 h 1.210623 v 1.106856 c -3e-6,0.340127 -0.184479,0.599546 -0.553427,0.778257 -0.294011,0.144122 -0.628373,0.216183 -1.003088,0.216183 -0.380483,0 -0.714845,-0.07206 -1.003088,-0.216183 -0.368952,-0.178711 -0.553427,-0.43813 -0.553427,-0.778257 v -3.329214 c 0,-0.639896 0.518838,-0.959846 1.556515,-0.959851 0.518836,5e-6 0.899317,0.07783 1.141445,0.233477 0.294005,0.190246 0.441009,0.521726 0.441012,0.994441"
       id="text3431"
       inkscape:connector-curvature="0" />
  </g>
</svg>
