<?xml version="1.0" encoding="UTF-8" standalone="no"?>
<!-- Generator: Adobe Illustrator 9.0, SVG Export Plug-In  -->

<svg
   xmlns:dc="http://purl.org/dc/elements/1.1/"
   xmlns:cc="http://creativecommons.org/ns#"
   xmlns:rdf="http://www.w3.org/1999/02/22-rdf-syntax-ns#"
   xmlns:svg="http://www.w3.org/2000/svg"
   xmlns="http://www.w3.org/2000/svg"
   xmlns:xlink="http://www.w3.org/1999/xlink"
   xmlns:sodipodi="http://sodipodi.sourceforge.net/DTD/sodipodi-0.dtd"
   xmlns:inkscape="http://www.inkscape.org/namespaces/inkscape"
   width="22"
   height="22"
   xml:space="preserve"
   id="svg16168"
   sodipodi:version="0.32"
   inkscape:version="0.92.2 (5c3e80d, 2017-08-06)"
   sodipodi:docname="image.svg"
   inkscape:output_extension="org.inkscape.output.svg.inkscape"
   version="1.1"><metadata
     id="metadata16236"><rdf:RDF><cc:Work
         rdf:about=""><dc:format>image/svg+xml</dc:format><dc:type
           rdf:resource="http://purl.org/dc/dcmitype/StillImage" /><dc:title>Genric Image</dc:title><dc:creator><cc:Agent><dc:title>Jakub Steiner</dc:title></cc:Agent></dc:creator><dc:subject><rdf:Bag><rdf:li>image</rdf:li><rdf:li>picture</rdf:li><rdf:li>snapshot</rdf:li><rdf:li>photo</rdf:li></rdf:Bag></dc:subject><cc:license
           rdf:resource="http://creativecommons.org/publicdomain/zero/1.0/" /></cc:Work><cc:License
         rdf:about="http://creativecommons.org/publicdomain/zero/1.0/"><cc:permits
           rdf:resource="http://creativecommons.org/ns#Reproduction" /><cc:permits
           rdf:resource="http://creativecommons.org/ns#Distribution" /><cc:permits
           rdf:resource="http://creativecommons.org/ns#DerivativeWorks" /></cc:License></rdf:RDF></metadata><defs
     id="defs16234"><inkscape:perspective
       sodipodi:type="inkscape:persp3d"
       inkscape:vp_x="0 : 24 : 1"
       inkscape:vp_y="0 : 1000 : 0"
       inkscape:vp_z="48 : 24 : 1"
       inkscape:persp3d-origin="24 : 16 : 1"
       id="perspective80" /><radialGradient
       inkscape:collect="always"
       xlink:href="#linearGradient5060"
       id="radialGradient6719"
       gradientUnits="userSpaceOnUse"
       gradientTransform="matrix(-2.774389,0,0,1.969706,112.7623,-872.8854)"
       cx="605.71429"
       cy="486.64789"
       fx="605.71429"
       fy="486.64789"
       r="117.14286" /><linearGradient
       inkscape:collect="always"
       id="linearGradient5060"><stop
         style="stop-color:black;stop-opacity:1;"
         offset="0"
         id="stop5062" /><stop
         style="stop-color:black;stop-opacity:0;"
         offset="1"
         id="stop5064" /></linearGradient><radialGradient
       inkscape:collect="always"
       xlink:href="#linearGradient5060"
       id="radialGradient6717"
       gradientUnits="userSpaceOnUse"
       gradientTransform="matrix(2.774389,0,0,1.969706,-1891.633,-872.8854)"
       cx="605.71429"
       cy="486.64789"
       fx="605.71429"
       fy="486.64789"
       r="117.14286" /><linearGradient
       id="linearGradient5048"><stop
         style="stop-color:black;stop-opacity:0;"
         offset="0"
         id="stop5050" /><stop
         id="stop5056"
         offset="0.5"
         style="stop-color:black;stop-opacity:1;" /><stop
         style="stop-color:black;stop-opacity:0;"
         offset="1"
         id="stop5052" /></linearGradient><linearGradient
       inkscape:collect="always"
       xlink:href="#linearGradient5048"
       id="linearGradient6715"
       gradientUnits="userSpaceOnUse"
       gradientTransform="matrix(2.774389,0,0,1.969706,-1892.179,-872.8854)"
       x1="302.85715"
       y1="366.64789"
       x2="302.85715"
       y2="609.50507" /><linearGradient
       id="linearGradient8171"><stop
         style="stop-color:#bbbdba;stop-opacity:1;"
         offset="0"
         id="stop8173" /><stop
         style="stop-color:#70746e;stop-opacity:1;"
         offset="1"
         id="stop8175" /></linearGradient><linearGradient
       id="linearGradient2224"><stop
         style="stop-color:#7c7c7c;stop-opacity:1;"
         offset="0"
         id="stop2226" /><stop
         style="stop-color:#b8b8b8;stop-opacity:1;"
         offset="1"
         id="stop2228" /></linearGradient><linearGradient
       inkscape:collect="always"
       id="linearGradient2251"><stop
         style="stop-color:#ffffff;stop-opacity:1;"
         offset="0"
         id="stop2253" /><stop
         style="stop-color:#ffffff;stop-opacity:0;"
         offset="1"
         id="stop2255" /></linearGradient><linearGradient
       id="linearGradient7648"
       gradientUnits="userSpaceOnUse"
       x1="21.9326"
       y1="24.627399"
       x2="21.9326"
       y2="7.1090999"><stop
         offset="0"
         style="stop-color:#8595bc;stop-opacity:1;"
         id="stop7650" /><stop
         offset="1"
         style="stop-color:#041a3b;stop-opacity:1;"
         id="stop7652" /></linearGradient><linearGradient
       id="linearGradient2392"><stop
         id="stop2394"
         offset="0.0000000"
         style="stop-color:#715b26;stop-opacity:1.0000000;" /><stop
         id="stop2396"
         offset="1.0000000"
         style="stop-color:#312710;stop-opacity:1.0000000;" /></linearGradient><linearGradient
       inkscape:collect="always"
       id="linearGradient12129"><stop
         style="stop-color:#000000;stop-opacity:1;"
         offset="0"
         id="stop12131" /><stop
         style="stop-color:#000000;stop-opacity:0;"
         offset="1"
         id="stop12133" /></linearGradient><linearGradient
       y2="36.032799"
       x2="31.081301"
       y1="3.7319"
       x1="12.4873"
       gradientUnits="userSpaceOnUse"
       id="aigrd1"><stop
         id="stop16177"
         style="stop-color:#D2D2D2;stroke-dasharray:none;stroke-miterlimit:4.0000000;stroke-width:1.2166667"
         offset="0" /><stop
         id="stop16179"
         style="stop-color:#EDEDED;stroke-dasharray:none;stroke-miterlimit:4.0000000;stroke-width:1.2166667"
         offset="1" /></linearGradient><linearGradient
       y2="22.5769"
       x2="21.9168"
       y1="30.341299"
       x1="21.877001"
       gradientUnits="userSpaceOnUse"
       id="aigrd2"><stop
         id="stop16184"
         style="stop-color:#5e4f07;stop-opacity:1.0000000;"
         offset="0.0000000" /><stop
         id="stop16186"
         style="stop-color:#348a31;stop-opacity:1.0000000;"
         offset="1.0000000" /></linearGradient><linearGradient
       y2="7.1090999"
       x2="21.9326"
       y1="24.627399"
       x1="21.9326"
       gradientUnits="userSpaceOnUse"
       id="aigrd3"><stop
         id="stop16199"
         style="stop-color:#D0D6E5;stroke-dasharray:none;stroke-miterlimit:4.0000000;stroke-width:1.2166667"
         offset="0" /><stop
         id="stop16201"
         style="stop-color:#093A80;stroke-dasharray:none;stroke-miterlimit:4.0000000;stroke-width:1.2166667"
         offset="1" /></linearGradient><radialGradient
       inkscape:collect="always"
       xlink:href="#linearGradient12129"
       id="radialGradient12135"
       cx="24.218407"
       cy="41.63604"
       fx="24.218407"
       fy="41.63604"
       r="22.097088"
       gradientTransform="matrix(1,0,0,0.184,0,33.97501)"
       gradientUnits="userSpaceOnUse" /><linearGradient
       inkscape:collect="always"
       xlink:href="#linearGradient7648"
       id="linearGradient7671"
       gradientUnits="userSpaceOnUse"
       gradientTransform="matrix(0.52256723,0,0,-0.37933197,-0.49269227,39.891544)"
       x1="21.9326"
       y1="24.627399"
       x2="21.9326"
       y2="7.1090999" /><linearGradient
       inkscape:collect="always"
       xlink:href="#aigrd3"
       id="linearGradient7673"
       gradientUnits="userSpaceOnUse"
       gradientTransform="matrix(0.52256723,0,0,0.52623237,-0.49269227,19.803435)"
       x1="21.9326"
       y1="24.627399"
       x2="21.9326"
       y2="7.1090999" /><linearGradient
       inkscape:collect="always"
       xlink:href="#aigrd1"
       id="linearGradient8148"
       gradientUnits="userSpaceOnUse"
       gradientTransform="matrix(0.68186576,0,0,0.47078453,24.911842,0.95330852)"
       x1="12.4873"
       y1="3.7319"
       x2="31.081301"
       y2="36.032799" /><linearGradient
       inkscape:collect="always"
       xlink:href="#linearGradient2251"
       id="linearGradient8166"
       gradientUnits="userSpaceOnUse"
       gradientTransform="matrix(0.47549814,0,0,0.47549814,2.480645,-2.0179416)"
       x1="33.396004"
       y1="36.921333"
       x2="34.170048"
       y2="38.070381" /><linearGradient
       inkscape:collect="always"
       xlink:href="#linearGradient2224"
       id="linearGradient8169"
       gradientUnits="userSpaceOnUse"
       gradientTransform="matrix(0.47549814,0,0,0.47549814,2.480645,-1.8396296)"
       x1="35.996582"
       y1="40.458221"
       x2="33.664921"
       y2="37.770721" /><linearGradient
       inkscape:collect="always"
       xlink:href="#linearGradient8171"
       id="linearGradient8177"
       x1="42.1875"
       y1="31"
       x2="45"
       y2="39.984692"
       gradientUnits="userSpaceOnUse"
       gradientTransform="matrix(0.47549814,0,0,0.47549814,0.03298502,-0.39659148)" /></defs><sodipodi:namedview
     inkscape:window-height="1017"
     inkscape:window-width="1920"
     inkscape:pageshadow="2"
     inkscape:pageopacity="0.0"
     borderopacity="0.07058824"
     bordercolor="#666666"
     pagecolor="#ffffff"
     id="base"
     inkscape:zoom="11.313708"
     inkscape:cx="29.260383"
     inkscape:cy="6.6268748"
     inkscape:window-x="-8"
     inkscape:window-y="-8"
     inkscape:current-layer="g7654"
     showgrid="false"
     inkscape:showpageshadow="false"
     inkscape:window-maximized="1" /><g
     style="display:inline"
     transform="matrix(0.01034262,0,0,0.01185542,20.199094,15.680557)"
     id="g6707"><rect
       style="color:#000000;display:inline;overflow:visible;visibility:visible;opacity:0.40206185;fill:url(#linearGradient6715);fill-opacity:1;fill-rule:nonzero;stroke:none;stroke-width:1;stroke-linecap:round;stroke-linejoin:miter;stroke-miterlimit:4;stroke-dasharray:none;stroke-dashoffset:0;stroke-opacity:1;marker:none;marker-start:none;marker-mid:none;marker-end:none"
       id="rect6709"
       width="1339.6335"
       height="478.35718"
       x="-1559.2523"
       y="-150.69685" /><path
       style="color:#000000;display:inline;overflow:visible;visibility:visible;opacity:0.40206185;fill:url(#radialGradient6717);fill-opacity:1;fill-rule:nonzero;stroke:none;stroke-width:1;stroke-linecap:round;stroke-linejoin:miter;stroke-miterlimit:4;stroke-dasharray:none;stroke-dashoffset:0;stroke-opacity:1;marker:none;marker-start:none;marker-mid:none;marker-end:none"
       d="m -219.61876,-150.68038 c 0,0 0,478.33079 0,478.33079 142.874166,0.90045 345.40022,-107.16966 345.40014,-239.196175 0,-132.026537 -159.436816,-239.134595 -345.40014,-239.134615 z"
       id="path6711"
       sodipodi:nodetypes="cccc"
       inkscape:connector-curvature="0" /><path
       sodipodi:nodetypes="cccc"
       id="path6713"
       d="m -1559.2523,-150.68038 c 0,0 0,478.33079 0,478.33079 -142.8742,0.90045 -345.4002,-107.16966 -345.4002,-239.196175 0,-132.026537 159.4368,-239.134595 345.4002,-239.134615 z"
       style="color:#000000;display:inline;overflow:visible;visibility:visible;opacity:0.40206185;fill:url(#radialGradient6719);fill-opacity:1;fill-rule:nonzero;stroke:none;stroke-width:1;stroke-linecap:round;stroke-linejoin:miter;stroke-miterlimit:4;stroke-dasharray:none;stroke-dashoffset:0;stroke-opacity:1;marker:none;marker-start:none;marker-mid:none;marker-end:none"
       inkscape:connector-curvature="0" /></g><path
     style="color:#000000;display:inline;overflow:visible;visibility:visible;fill:url(#linearGradient8148);fill-opacity:1;fill-rule:nonzero;stroke:#bbbfbb;stroke-width:0.47549811;stroke-linecap:butt;stroke-linejoin:miter;stroke-miterlimit:4;stroke-dashoffset:0;stroke-opacity:1;marker:none;marker-start:none;marker-mid:none;marker-end:none"
     d="m 1.32528,2.6726414 h 19.334597 c 0.296354,0 0.534935,0.238581 0.534935,0.5349356 v 11.364789 c 0,0.296354 -4.021146,3.813158 -4.317499,3.813158 H 1.32528 c -0.296354,0 -0.53493498,-0.238581 -0.53493498,-0.534936 V 3.207577 c 0,-0.2963546 0.23858098,-0.5349356 0.53493498,-0.5349356 z"
     id="rect7603"
     sodipodi:nodetypes="ccccccccc"
     inkscape:connector-curvature="0" /><g
     id="g7654"
     transform="matrix(1.054774,0,0,1.049989,-0.814647,-21.514988)"><path
       id="path7644"
       d="M 3.0576437,36.408996 H 19.286651 V 31.476832 H 3.0576437 Z"
       style="fill:url(#linearGradient7671);fill-opacity:1;fill-rule:nonzero;stroke:none;stroke-width:0.57852274;stroke-miterlimit:4"
       inkscape:connector-curvature="0" /><path
       style="fill:url(#linearGradient7673);fill-rule:nonzero;stroke:none;stroke-width:0.57852274;stroke-miterlimit:4"
       d="M 3.0576437,24.634637 H 19.286651 v 6.842195 H 3.0576437 Z"
       id="path16203"
       inkscape:connector-curvature="0" /><g
       id="g16205"
       style="fill-rule:nonzero;stroke:#000000;stroke-width:1.15611064;stroke-miterlimit:4"
       transform="matrix(0.56547047,0,0,0.56547047,-1.2399323,19.036478)"><g
         id="g16207"><path
           style="opacity:0.04999994;fill:#e8f52f;stroke:none"
           d="m 18.4,15.4 c 0,2.2 -1.8,4.1 -4.1,4.1 -2.2,0 -4.1,-1.8 -4.1,-4.1 0,-2.2 1.8,-4.1 4.1,-4.1 2.2,0 4.1,1.8 4.1,4.1 z"
           id="path16209"
           inkscape:connector-curvature="0" /><path
           style="opacity:0.20829994;fill:#ecf751;stroke:none"
           d="m 18,15.4 c 0,2 -1.6,3.7 -3.7,3.7 -2,0 -3.7,-1.6 -3.7,-3.7 0,-2 1.6,-3.7 3.7,-3.7 2,0 3.7,1.6 3.7,3.7 z"
           id="path16211"
           inkscape:connector-curvature="0" /><path
           style="opacity:0.36669994;fill:#f0f972;stroke:none"
           d="m 17.6,15.4 c 0,1.8 -1.5,3.3 -3.3,3.3 -1.8,0 -3.3,-1.5 -3.3,-3.3 0,-1.8 1.5,-3.3 3.3,-3.3 1.8,0 3.3,1.5 3.3,3.3 z"
           id="path16213"
           inkscape:connector-curvature="0" /><path
           style="opacity:0.525;fill:#f4fa95;stroke:none"
           d="m 17.2,15.4 c 0,1.6 -1.3,2.9 -2.9,2.9 -1.6,0 -2.9,-1.3 -2.9,-2.9 0,-1.6 1.3,-2.9 2.9,-2.9 1.6,0 2.9,1.3 2.9,2.9 z"
           id="path16215"
           inkscape:connector-curvature="0" /><path
           style="opacity:0.6833;fill:#f7fcb7;stroke:none"
           d="m 16.8,15.4 c 0,1.4 -1.1,2.5 -2.5,2.5 -1.4,0 -2.5,-1.1 -2.5,-2.5 0,-1.4 1.1,-2.5 2.5,-2.5 1.4,0 2.5,1.1 2.5,2.5 z"
           id="path16217"
           inkscape:connector-curvature="0" /><path
           style="opacity:0.8417;fill:#fbfddb;stroke:none"
           d="m 16.4,15.4 c 0,1.2 -1,2.1 -2.1,2.1 -1.1,0 -2.1,-1 -2.1,-2.1 0,-1.1 1,-2.1 2.1,-2.1 1.1,0 2.1,1 2.1,2.1 z"
           id="path16219"
           inkscape:connector-curvature="0" /><path
           style="fill:#ffffff;stroke:none"
           d="m 16,15.4 c 0,1 -0.8,1.8 -1.8,1.8 -1,0 -1.8,-0.8 -1.8,-1.8 0,-1 0.8,-1.8 1.8,-1.8 1,0 1.8,0.8 1.8,1.8 z"
           id="path16221"
           inkscape:connector-curvature="0" /></g></g><path
       style="opacity:0.3;fill-rule:nonzero;stroke:none;stroke-width:0.57852274;stroke-miterlimit:4"
       d="m 12.331362,32.438132 h 4.127936 l 0.791659,0.226189 h -1.357129 c 0,0 1.357129,0.113093 2.035695,0.961299 0.678564,0.791659 -0.791659,1.75296 -0.791659,1.75296 0,0 0,0 0,0 -0.05655,-0.169642 -0.395831,-1.526772 -1.074395,-2.092242 -0.508924,-0.452377 -1.074395,-0.565471 -1.074395,-0.565471 h -2.657712 v -0.226188 z"
       id="path16223"
       inkscape:connector-curvature="0" /><path
       style="opacity:0.3;fill-rule:nonzero;stroke:none;stroke-width:0.57852274;stroke-miterlimit:4"
       d="m 15.045623,32.777414 h -2.374978 l 4.410672,2.488071 z"
       id="path16225"
       inkscape:connector-curvature="0" /><path
       style="fill:#515151;fill-rule:nonzero;stroke:none;stroke-width:0.57852274;stroke-miterlimit:4"
       d="m 12.331362,32.494679 h 4.127936 l 0.622019,-0.39583 h -1.35713 c 0,0 1.244035,-0.226188 1.413677,-1.639865 0.16964,-1.413676 -1.922601,-2.996994 -1.922601,-2.996994 0,0 0,0 0,0.05655 0.05655,0.339282 0.622017,2.714259 0.226188,3.619013 -0.169642,0.791658 -0.678565,0.961299 -0.678565,0.961299 h -2.601165 l 0.113094,0.39583 z"
       id="path16227"
       inkscape:connector-curvature="0" /><path
       style="fill:#515151;fill-rule:nonzero;stroke:none;stroke-width:0.57852274;stroke-miterlimit:4"
       d="m 14.819434,31.872661 h -2.374977 l 2.827352,-4.297577 z"
       id="path16229"
       inkscape:connector-curvature="0" /></g><path
     style="color:#000000;display:inline;overflow:visible;visibility:visible;fill:none;fill-opacity:1;fill-rule:nonzero;stroke:#ffffff;stroke-width:0.47549802;stroke-linecap:butt;stroke-linejoin:miter;stroke-miterlimit:4;stroke-dashoffset:0;stroke-opacity:1;marker:none;marker-start:none;marker-mid:none;marker-end:none"
     d="m 1.366392,3.1472282 h 19.224272 c 0.07151,0 0.129072,0.057566 0.129072,0.1290726 V 14.54482 c 0,0.449763 -3.377817,3.365267 -3.449323,3.365267 H 1.366392 c -0.07151,0 -0.129072,-0.05757 -0.129072,-0.129072 V 3.2763008 c 0,-0.071506 0.05757,-0.1290726 0.129072,-0.1290726 z"
     id="rect7675"
     sodipodi:nodetypes="ccccccccc"
     inkscape:connector-curvature="0" /><rect
     style="color:#000000;display:inline;overflow:visible;visibility:visible;opacity:0.84659095;fill:none;fill-opacity:1;fill-rule:nonzero;stroke:#4f4f4f;stroke-width:0.47549814;stroke-linecap:butt;stroke-linejoin:miter;stroke-miterlimit:4;stroke-dasharray:none;stroke-dashoffset:0;stroke-opacity:1;marker:none;marker-start:none;marker-mid:none;marker-end:none"
     id="rect8163"
     width="16.672153"
     height="11.917172"
     x="2.6482251"
     y="4.596139" /><path
     style="color:#000000;display:inline;overflow:visible;visibility:visible;fill:url(#linearGradient8169);fill-opacity:1;fill-rule:evenodd;stroke:url(#linearGradient8177);stroke-width:0.47549826;stroke-linecap:butt;stroke-linejoin:miter;stroke-miterlimit:4;stroke-dasharray:none;stroke-dashoffset:0;stroke-opacity:1;marker:none;marker-start:none;marker-mid:none;marker-end:none"
     d="m 16.773682,18.370732 c 0.96546,0.156866 4.559453,-2.153973 4.41472,-4.040709 -0.743328,1.152178 -2.262668,0.611841 -4.216375,0.68745 0,0 0.187997,3.11551 -0.198345,3.353259 z"
     id="path2210"
     sodipodi:nodetypes="cccc"
     inkscape:connector-curvature="0" /><path
     sodipodi:nodetypes="cccc"
     id="path2247"
     d="m 17.463362,17.328676 c 0.651328,-0.325159 2.105624,-1.02064 2.723478,-1.915054 -0.75894,0.323365 -1.401678,0.09962 -2.711449,0.09054 0,0 0.07718,1.45602 -0.01203,1.824517 z"
     style="color:#000000;display:inline;overflow:visible;visibility:visible;opacity:0.36931817;fill:none;fill-opacity:1;fill-rule:evenodd;stroke:url(#linearGradient8166);stroke-width:0.47549805;stroke-linecap:butt;stroke-linejoin:miter;stroke-miterlimit:4;stroke-dasharray:none;stroke-dashoffset:0;stroke-opacity:1;marker:none;marker-start:none;marker-mid:none;marker-end:none"
     inkscape:connector-curvature="0" /></svg>